<svg width="1249" height="421" viewBox="0 0 1249 421" fill="none" xmlns="http://www.w3.org/2000/svg">
<path d="M831.683 209.549C809.552 94.9253 740.386 2 625.441 2C510.497 2 450.748 76.5289 417.316 210.492M436.671 300.587C464.811 377.606 535.632 418.985 625.441 418.985C708.359 418.985 778.919 373.711 812.377 303.418" stroke="#FF3351" stroke-width="3"/>
<path d="M417.332 210.184C393.446 324.811 346.857 419.155 209.666 419.155C94.9752 419.155 2 325.807 2 210.655C2 95.5039 94.9752 2.15527 209.666 2.15527C289.406 2.15527 358.649 47.279 393.446 113.481" stroke="#FF3351" stroke-width="3"/>
<path d="M386.587 138.764L393.566 113.071L416.292 127.079" stroke="#FF3351" stroke-width="3"/>
<path d="M878.786 104.053L854.384 114.492L851.234 87.9053" stroke="#FF3351" stroke-width="3"/>
<path d="M833.307 290.677L811.14 305.302L803.336 279.7" stroke="#FF3351" stroke-width="3"/>
<path d="M429.826 325.632L436.805 299.939L460.47 313.467" stroke="#FF3351" stroke-width="3"/>
<path d="M831.683 209.077C855.568 323.701 924.655 418.985 1039.34 418.985C1154.03 418.985 1247 325.64 1247 210.492C1247 95.3452 1154.03 2 1039.34 2C959.604 2 890.364 47.122 855.568 113.322" stroke="#FF3351" stroke-width="3"/>
</svg>
