<svg width="421" height="1249" viewBox="0 0 421 1249" fill="none" xmlns="http://www.w3.org/2000/svg">
<path d="M211.606 831.683C326.23 809.552 419.155 740.386 419.155 625.441C419.155 510.497 344.626 450.748 210.663 417.316M120.568 436.671C43.5491 464.811 2.17053 535.632 2.17053 625.441C2.17053 708.359 47.4438 778.919 117.738 812.377" stroke="#FF3351" stroke-width="3"/>
<path d="M210.972 417.332C96.3439 393.446 2 346.857 2 209.666C2.00001 94.9752 95.3486 2 210.5 2.00001C325.651 2.00001 419 94.9752 419 209.666C419 289.406 373.876 358.649 307.674 393.446" stroke="#FF3351" stroke-width="3"/>
<path d="M282.392 386.587L308.084 393.567L294.076 416.292" stroke="#FF3351" stroke-width="3"/>
<path d="M317.102 878.786L306.664 854.384L333.25 851.234" stroke="#FF3351" stroke-width="3"/>
<path d="M130.478 833.307L115.853 811.14L141.455 803.336" stroke="#FF3351" stroke-width="3"/>
<path d="M95.5233 429.826L121.216 436.805L107.689 460.47" stroke="#FF3351" stroke-width="3"/>
<path d="M212.078 831.683C97.4544 855.568 2.17055 924.655 2.17055 1039.34C2.17054 1154.03 95.5157 1247 210.663 1247C325.81 1247 419.155 1154.03 419.155 1039.34C419.155 959.604 374.033 890.364 307.834 855.568" stroke="#FF3351" stroke-width="3"/>
</svg>
