<svg width="222" height="1107" viewBox="0 0 222 1107" fill="none" xmlns="http://www.w3.org/2000/svg">
<path d="M72.3032 1107C72.3032 1107 72.3032 822.656 72.3032 769.892M106.931 93C106.931 93 72.5619 93.0002 72.3032 140.28C72.3032 188.93 72.3032 247.501 72.3032 298.668M72.3032 339.644L113.227 298.668M72.3032 339.644C72.3032 325.971 72.3032 312.303 72.3032 298.668M72.3032 339.644C72.3032 413.858 72.3032 433.036 72.3032 502.76M72.3032 298.668L46.7256 273.058L21.148 247.448M72.3032 539.796C72.3032 530.178 72.3032 512.574 72.3032 502.76M72.3032 539.796C72.3032 628.238 72.3032 668.434 72.3032 728.916M72.3032 539.796L97.8809 514.186L123.458 488.576M72.3032 502.76L48.8899 479.317L25.4765 455.874M72.3032 769.892C72.3032 759.636 72.3032 740.699 72.3032 728.916M72.3032 769.892L99.6516 742.509L127 715.126M72.3032 728.916L45.1516 701.73L18 674.544" stroke="#3E3E3E" stroke-width="3"/>
<path d="M89.8349 859.521C91.2402 849.053 102.953 823.702 138.562 806.044C140.178 834.27 120.419 855.055 89.8349 859.521Z" stroke="#3E3E3E" stroke-width="3" stroke-linecap="round" stroke-linejoin="round"/>
<path d="M89.8349 998.08C91.2402 987.611 102.953 962.261 138.562 944.603C140.178 972.829 120.419 993.614 89.8349 998.08Z" stroke="#3E3E3E" stroke-width="3" stroke-linecap="round" stroke-linejoin="round"/>
<path d="M41.7381 808.557C32.9431 805.956 12.7521 792.526 2.34766 759.617C26.7825 761.994 41.9836 781.718 41.7381 808.557Z" stroke="#3E3E3E" stroke-width="3" stroke-linecap="round" stroke-linejoin="round"/>
<path d="M41.7381 947.116C32.9431 944.514 12.7521 931.085 2.34766 898.176C26.7825 900.552 41.9836 920.277 41.7381 947.116Z" stroke="#3E3E3E" stroke-width="3" stroke-linecap="round" stroke-linejoin="round"/>
<path d="M143.482 5.20967C128.302 11.651 140.239 37.8004 148.104 50.07C133.206 39.7075 102.276 24.139 97.7505 44.7646C93.2247 65.3903 110.5 69.4139 119.704 68.8475C112.21 69.989 99.2368 76.9788 107.295 95.8052C117.368 119.338 146.559 83.4836 146.284 89.4238C146.009 95.3639 143.082 126.481 164.078 122.988C180.876 120.193 174.248 96.174 168.834 84.514C179.594 93.1969 203.69 106.366 213.991 89.5791C226.867 68.5956 175.633 66.2257 187.685 63.0627C199.737 59.8996 217.674 42.1266 209.348 29.0916C202.686 18.6636 178.911 32.8923 167.856 41.3102C166.057 26.5928 158.663 -1.2316 143.482 5.20967Z" stroke="#3E3E3E" stroke-width="3" stroke-linecap="round" stroke-linejoin="round"/>
<path d="M144.241 69.2384C144.764 57.9521 151.939 52.9761 155.461 51.8988C160.049 49.2412 174.767 52.7918 174.217 64.6721C173.667 76.5524 165.968 82.1491 161.512 81.943C157.057 81.737 143.589 83.3463 144.241 69.2384Z" stroke="#3E3E3E" stroke-width="3" stroke-linecap="round" stroke-linejoin="round"/>
</svg>
