<svg width="575" height="508" viewBox="0 0 575 508" fill="none" xmlns="http://www.w3.org/2000/svg">
<path d="M254 -4.3983e-06C113.72 1.73355e-06 2.8784e-05 113.72 3.49159e-05 254C3.73197e-05 308.992 4.2218e-05 421.052 4.4623e-05 476.073C4.53955e-05 493.746 14.2746 508 31.9478 508C88.566 508 205.142 508 254 508C394.28 508 508 394.28 508 254C508 113.72 394.28 -1.05301e-05 254 -4.3983e-06Z" fill="#FF3351"/>
<path d="M511.108 430.742C511.108 430.742 518.602 424.804 517.5 420.096C515.949 413.465 505.224 416.201 499.999 420.614C494.365 425.373 493.659 433.045 497.542 439.278C502.299 446.913 511.976 445.243 520.475 442.17C532.991 437.645 539.234 425.096 536.454 412.143C532.737 394.826 493.297 397.829 493.297 397.829M526.104 387.477L536.994 376.65M541.629 398.596L551.835 394.313M549.544 417.459L562.185 418.98M538.948 441.245L551.066 446.967M521.255 454.926L523.738 470.379M495.689 452.57L482.573 464.899M480.078 435.798L462.583 443.14" stroke="#B4B4B4" stroke-width="3"/>
<path d="M476.146 64.0315C476.146 64.0315 480.588 47.2978 484.315 47.271C488.043 47.2442 487.511 63.5785 492.546 63.7278C497.581 63.8772 509.865 33.9114 513.011 32.2185C516.158 30.5256 514.973 68.2059 518.349 69.8516C521.726 71.4973 529.399 59.5655 533.502 59.7215C537.605 59.8775 529.981 75.5207 529.981 75.5207M485.393 72.6869C494.135 71.2631 516.166 71.0921 534.35 81.7987M485.466 78.2536C499.324 78.4013 528.966 80.6498 536.674 88.4627" stroke="#B4B4B4" stroke-width="3"/>
</svg>
