<svg width="667" height="366" viewBox="0 0 667 366" fill="none" xmlns="http://www.w3.org/2000/svg">
<path opacity="0.4" d="M635.654 307.832L635.653 307.832C635.824 307.527 635.995 307.339 636.168 307.234C635.995 307.339 635.824 307.527 635.654 307.832ZM632.918 309.905C632.915 309.884 632.912 309.863 632.908 309.842C632.912 309.863 632.915 309.884 632.918 309.905ZM629.921 313.341C626.082 313.023 622.244 312.705 618.405 312.389L618.405 312.388C622.244 312.705 626.082 313.023 629.921 313.341ZM640.782 309.222C640.766 308.964 640.823 308.725 640.963 308.509C640.823 308.725 640.766 308.964 640.782 309.222ZM619.217 315.496C619.132 315.119 619.045 314.741 618.959 314.364C619.125 314.26 619.303 314.184 619.492 314.136C619.303 314.184 619.125 314.26 618.959 314.364C619.045 314.741 619.132 315.119 619.217 315.496ZM617.957 315.912C618.023 316.128 618.09 316.344 618.155 316.56C618.09 316.344 618.023 316.128 617.956 315.913C617.137 315.536 616.205 315.67 615.323 315.578C616.205 315.67 617.137 315.536 617.957 315.912ZM619.225 315.533C620.225 316.066 621.46 316.186 622.471 316.697C621.46 316.186 620.225 316.066 619.225 315.533ZM619.922 313.261C620.053 313.388 620.156 313.56 620.216 313.801C620.156 313.56 620.053 313.388 619.922 313.261ZM618.402 312.54C618.401 312.601 618.4 312.659 618.399 312.66C618.399 312.66 618.401 312.601 618.402 312.54ZM613.58 314.473C613.717 313.96 613.853 313.447 613.99 312.934C613.297 312.312 612.564 311.442 611.995 311.491C612.565 311.441 613.297 312.311 613.991 312.933C614.554 312.737 615.117 312.694 615.681 312.765C615.117 312.694 614.554 312.737 613.99 312.934C613.853 313.447 613.717 313.96 613.581 314.473L613.58 314.473ZM608.824 313.69C608.894 313.564 608.952 313.439 609.001 313.315C608.952 313.439 608.894 313.564 608.824 313.69ZM606.813 313.512C605.354 313.038 603.894 312.565 602.435 312.09C602.797 311.771 603.159 311.451 603.521 311.132C603.159 311.451 602.797 311.771 602.435 312.09C603.894 312.565 605.354 313.038 606.812 313.512C606.994 313.517 607.175 313.509 607.356 313.484C607.175 313.509 606.994 313.517 606.813 313.512ZM618.248 311.807C618.275 311.905 618.301 312.003 618.327 312.102C618.301 312.003 618.275 311.905 618.248 311.807ZM646.544 309.623L646.543 309.623C646.674 309.561 646.804 309.499 646.935 309.438C646.804 309.499 646.674 309.561 646.544 309.623ZM638.897 312.242C638.84 312.908 638.783 313.575 638.726 314.242C638.801 314.312 638.88 314.369 638.962 314.414C638.88 314.369 638.801 314.312 638.726 314.242C638.783 313.575 638.84 312.908 638.896 312.242L638.897 312.242ZM641.913 311.461L641.913 311.461C642.14 311.39 642.367 311.321 642.594 311.251C642.368 311.32 642.14 311.39 641.913 311.461ZM652.394 313.219C652.676 313.32 652.869 313.47 652.997 313.653C652.869 313.47 652.676 313.32 652.394 313.219C652.026 312.774 651.615 312.554 651.177 312.481C651.615 312.554 652.026 312.774 652.394 313.219ZM622.929 318.487C622.617 318.527 622.304 318.488 621.988 318.237C621.496 318.728 621.022 318.871 620.558 318.846C621.022 318.871 621.496 318.727 621.988 318.237C622.303 318.487 622.617 318.527 622.929 318.487ZM626.908 319.424C628.256 319.507 629.603 319.59 630.95 319.673C631.006 319.879 631.062 320.086 631.118 320.292C631.062 320.086 631.006 319.879 630.95 319.673C629.603 319.59 628.256 319.507 626.908 319.424C626.388 319.288 625.822 319.259 625.299 319.127C625.822 319.259 626.388 319.288 626.908 319.424ZM600.26 328.536C599.254 327.886 597.897 327.954 596.754 327.584C597.897 327.954 599.254 327.886 600.26 328.536C600.842 328.765 601.606 328.676 602.066 329.117C601.606 328.676 600.842 328.765 600.26 328.536ZM593.865 329.643C593.814 329.428 593.765 329.214 593.716 329.001C593.765 329.214 593.814 329.429 593.865 329.642L593.865 329.643ZM593.716 328.995C592.234 329.15 590.753 329.306 589.271 329.46C590.753 329.306 592.234 329.15 593.717 328.995C593.716 328.996 593.716 328.996 593.716 328.997C593.716 328.996 593.716 328.995 593.716 328.995ZM581.166 329.023C580.944 329.052 580.721 329.081 580.499 329.11C580.721 329.081 580.944 329.052 581.167 329.022C581.702 328.915 582.162 328.942 582.54 329.117C582.162 328.942 581.702 328.915 581.166 329.023ZM586.721 327.535C586.72 327.531 586.688 327.411 586.666 327.323L586.721 327.535ZM580.22 327.962C580.186 327.769 580.178 327.603 580.187 327.454C580.178 327.603 580.186 327.769 580.22 327.962C580.437 328.023 580.556 328.109 580.615 328.209C580.556 328.109 580.437 328.023 580.22 327.962ZM578.376 328.459C578.284 328.078 578.192 327.694 578.101 327.311C578.192 327.694 578.284 328.078 578.376 328.459L578.376 328.459ZM585.345 337.162C585.07 337.042 584.796 336.923 584.521 336.802C583.883 337.079 583.253 337.523 582.605 337.561C583.253 337.523 583.883 337.078 584.521 336.801C584.796 336.923 585.07 337.042 585.345 337.162ZM563.378 337.29C563.579 336.932 563.781 336.572 563.983 336.214C563.781 336.572 563.579 336.932 563.378 337.29ZM554.062 341.54C553.189 341.569 552.317 341.598 551.443 341.629C552.317 341.598 553.189 341.569 554.061 341.539C553.958 341.122 553.855 340.706 553.752 340.289C553.855 340.706 553.958 341.122 554.062 341.54ZM557.787 340.297C557.619 340.404 557.451 340.465 557.282 340.493C557.451 340.465 557.619 340.404 557.787 340.297C557.74 340.011 557.766 339.778 557.854 339.589C557.766 339.778 557.74 340.011 557.787 340.297ZM565.296 338.469C565.224 338.239 565.109 338.08 564.965 337.968C565.109 338.08 565.224 338.239 565.296 338.469ZM559.096 342.763C559.096 342.763 559.055 342.891 559.029 342.968L559.096 342.763ZM539.615 339.528C538.892 339.271 538.168 339.013 537.444 338.756C536.083 339.203 534.694 339.11 533.297 338.929C534.694 339.11 536.083 339.203 537.444 338.756C538.168 339.013 538.892 339.271 539.615 339.528C539.884 339.842 540.296 339.847 540.697 339.876C540.296 339.847 539.884 339.842 539.615 339.528ZM542.259 338.384C541.472 338.338 540.686 338.203 539.899 338.11C540.686 338.203 541.472 338.338 542.259 338.384ZM529.224 340.317C529.298 340.985 529.839 341.162 530.341 341.377C529.839 341.162 529.298 340.985 529.223 340.317C528.94 339.953 528.491 339.972 528.043 339.955C528.491 339.972 528.94 339.953 529.224 340.317ZM537.683 344.669C537.983 345.025 538.314 345.364 538.53 345.768C538.314 345.364 537.983 345.025 537.683 344.669C537.042 345.022 536.448 345.02 535.867 344.878C536.448 345.02 537.042 345.022 537.683 344.669ZM543.119 347.78C542.864 347.399 542.242 347.115 541.6 346.837L541.6 346.836C542.243 347.114 542.865 347.399 543.119 347.78ZM544.344 351.032C543.862 351.227 543.397 351.363 543.029 351.179C543.397 351.363 543.862 351.227 544.344 351.032ZM503.771 349.078C505.774 349.686 507.829 349.586 509.872 349.61C507.828 349.587 505.774 349.687 503.771 349.078ZM499.988 349.358C499.152 348.752 498.223 349.39 497.343 349.384C498.223 349.39 499.152 348.752 499.988 349.357C500.846 349.391 501.704 349.425 502.561 349.459C501.704 349.425 500.846 349.391 499.988 349.358ZM517.719 339.457C517.116 338.868 516.969 338.463 517.094 338.17C516.969 338.463 517.116 338.868 517.719 339.456C518.198 339.545 518.676 339.632 519.155 339.72C518.676 339.632 518.197 339.545 517.719 339.457ZM561.803 335.354C561.804 335.353 561.757 335.49 561.735 335.557C561.757 335.49 561.802 335.355 561.803 335.354ZM553.401 336.467C551.975 336.164 550.548 335.861 549.12 335.559C550.548 335.861 551.975 336.164 553.402 336.467C554.141 336.442 554.912 336.351 555.497 336.667C554.912 336.351 554.141 336.442 553.401 336.467ZM556.128 334.278C555.99 333.964 555.247 333.956 554.62 333.888C555.247 333.956 555.99 333.964 556.128 334.278ZM557.565 335.349C557.091 335.053 556.618 334.756 556.144 334.459C556.618 334.756 557.091 335.053 557.565 335.349ZM548.064 333.926C547.967 333.611 547.896 333.278 547.762 332.988C547.896 333.278 547.967 333.611 548.064 333.926C548.304 333.972 548.535 333.892 548.76 333.772C548.535 333.892 548.304 333.972 548.064 333.926ZM542.034 333.803C542.277 334.038 542.586 334.267 542.926 334.493C542.586 334.267 542.277 334.038 542.034 333.803ZM594.27 318.986C594.294 318.881 594.324 318.796 594.361 318.726C594.324 318.796 594.294 318.881 594.27 318.986ZM596.039 317.53C595.794 317.702 595.62 318.022 595.553 318.562C595.62 318.021 595.794 317.702 596.039 317.53ZM612.828 303.415C612.64 304.431 612.942 305.776 614.17 305.943C616.252 306.226 618.059 307.57 620.228 307.389C622.249 307.986 624.229 308.842 626.42 308.393C626.481 308.241 626.65 308.182 626.868 308.169C626.65 308.182 626.481 308.241 626.42 308.394C627.726 308.874 629.032 309.355 630.338 309.835C629.816 310.379 629.295 310.924 628.772 311.469C625.387 310.871 622.036 309.917 618.538 310.476C618.076 310.375 617.614 310.273 617.152 310.173C614.268 309.216 611.268 309.324 608.293 309.219C607.948 309.273 607.602 309.328 607.257 309.382L607.256 309.382C605.875 308.578 604.354 308.661 602.844 308.687C601.531 308.138 600.185 308.257 598.834 308.49C599.193 309.009 599.552 309.529 599.91 310.048C601.047 310.231 602.184 310.414 603.32 310.599C602.184 310.414 601.047 310.231 599.91 310.048C599.552 309.529 599.193 309.009 598.834 308.49C597.518 308.062 596.179 307.874 594.799 308.094C594.782 308.207 594.756 308.318 594.72 308.426C594.756 308.319 594.782 308.207 594.799 308.094C593.579 307.958 591.752 306.904 591.534 308.859C591.379 310.243 592.441 311.861 594.512 311.724C595.131 311.683 595.757 311.76 596.38 311.783C596.735 312.408 597.246 312.188 597.745 312.031C598.357 312.622 599.159 312.652 599.93 312.771C600.566 312.585 601.202 312.398 601.837 312.213C601.202 312.398 600.566 312.585 599.93 312.771C601.722 313.448 603.54 314.004 605.482 314.003L605.483 314.003C606.136 314.598 606.878 314.861 607.757 314.604C608.418 314.616 609.078 314.63 609.738 314.643C609.863 314.813 610.02 314.852 610.211 314.761C610.485 314.9 610.761 315.038 611.036 315.176C612.535 315.638 614.033 316.1 615.532 316.563C615.425 316.964 615.32 317.364 615.214 317.765C612.968 317.349 610.743 316.771 608.428 316.884C602.602 315.464 596.645 315.466 590.708 315.256C588.794 315.151 586.384 314.083 585.322 316.299C584.576 317.857 586.591 318.591 587.799 319.335C588.191 320.549 589.118 320.235 589.982 320.101L590.004 320.052C590.574 320.776 591.313 320.989 592.193 320.772L592.202 320.772C592.938 321.012 593.674 321.253 594.412 321.494C595.146 322.377 596.193 322.173 597.15 322.28C597.875 322.474 598.599 322.669 599.324 322.864C603.472 324.405 607.621 325.945 611.769 327.486C612.028 327.648 612.285 327.809 612.543 327.97C612.467 329.065 611.343 328.406 610.929 328.936C609.773 328.836 608.618 328.736 607.461 328.636C606.686 327.854 605.735 327.788 604.724 327.966C604.329 327.52 603.822 327.631 603.326 327.686C600.526 327.106 597.82 326.075 594.928 325.934C592.523 325.467 590.192 324.231 587.645 325.22C587.58 325.02 587.458 324.864 587.279 324.753C586.48 323.882 585.402 324.482 584.487 324.22C583.714 323.548 582.856 324.056 582.036 324.047C581.107 323.396 580.119 323.353 579.088 323.756C578.677 323.842 578.266 323.929 577.854 324.015C577.229 326.434 577.229 326.434 575.243 326.742C573.747 326.632 572.251 326.521 570.754 326.411C569.353 326.167 567.95 325.697 566.558 326.451C565.226 326.121 563.902 325.692 562.505 326.09C559.261 325.942 559.261 325.942 559.545 327.634C559.96 328.799 560.297 330.061 562.01 329.58C562.257 329.485 562.503 329.392 562.749 329.297C562.503 329.392 562.257 329.485 562.01 329.58C565.183 331.094 568.669 331.43 572.029 332.236C572.023 332.237 572.016 332.24 572.009 332.243C573.018 332.64 574.027 333.037 575.036 333.436C575.189 333.99 575.342 334.545 575.494 335.1C574.27 335.972 573.35 334.119 572.155 334.729C571.759 334.247 571.237 334.419 570.74 334.455C569.471 333.376 567.949 333.733 566.494 333.706C565.624 333.656 564.754 333.607 563.883 333.557C563.29 332.689 562.204 333.811 561.598 332.991C560.077 332.395 558.546 331.871 556.876 332.309C556.264 331.935 555.614 331.841 554.924 332.048C552.002 331.231 549.008 331.2 546.008 331.239C545.595 331.357 545.182 331.474 544.77 331.592C544.06 331.538 543.351 331.483 542.642 331.429C541.328 330.627 539.744 331.25 539.6 332.209C539.372 333.734 540.811 334.579 542.377 334.77C546.053 335.757 549.647 337.133 553.532 337.129C553.789 337.316 554.046 337.504 554.302 337.69C554.587 339.269 553.326 338.97 552.487 339.185C549.865 338.834 547.244 338.484 544.622 338.133C543.017 337.756 541.448 337.076 539.741 337.535L539.787 337.732C539.767 337.647 539.741 337.535 539.741 337.535C539.38 337.579 539.022 337.624 538.662 337.669C538.354 337.563 538.047 337.457 537.739 337.352C536.642 336.837 535.514 336.643 534.332 337.032C533.613 336.994 532.85 337.552 532.18 336.872C531.143 336.226 530.023 336.173 528.862 336.408C527.306 336.248 525.746 335.932 524.193 335.969C522.419 336.009 520.399 335.157 518.977 337.026C518.816 337.061 518.653 337.087 518.489 337.104C518.252 336.804 518.022 336.257 517.774 336.248C516.694 336.209 515.461 336.473 515.534 337.776C515.632 339.509 516.737 340.553 518.598 340.558C520.985 341.243 523.37 341.927 525.756 342.612C530.093 343.936 534.429 345.259 538.766 346.582C539.357 347.298 540.09 347.437 540.937 347.124C540.869 348.031 542.867 347.54 542.136 348.894C541.302 349.087 540.467 349.28 539.633 349.472C539.055 348.997 538.782 349.584 538.408 349.822C537.846 349.862 537.247 350.113 536.793 349.539C534.673 349.412 532.553 349.284 530.433 349.155C529.254 349.087 528.075 349.018 526.896 348.95C526.498 349.067 526.1 349.184 525.702 349.302C525.374 349.143 525.045 348.985 524.716 348.826C523.5 348.045 522.165 348.351 520.857 348.402C518.391 347.551 515.814 348.322 513.319 347.885C511.344 347.374 509.355 347.066 507.313 347.436C505.942 348.152 504.637 347.364 503.301 347.264C500.684 347.282 498.068 347.299 495.451 347.317C495.251 347.582 495.152 347.787 495.128 347.95C495.152 347.787 495.251 347.582 495.451 347.317C494.903 346.56 494.207 346.999 493.555 347.085C492.212 346.899 490.412 346.571 490.403 348.4C490.397 349.862 492 350.41 493.577 350.297C495.731 350.143 497.893 350.107 500.051 350.023C500.942 350.045 501.832 350.067 502.722 350.09C506.72 350.892 510.803 350.406 514.823 350.876C516.076 351.488 517.407 351.135 518.706 351.184C521.162 352.442 523.784 351.403 526.307 351.736C526.332 351.633 526.364 351.53 526.399 351.429C526.364 351.53 526.333 351.633 526.307 351.736C527.599 352.417 528.957 352.204 530.313 352.033C530.313 352.03 530.312 352.029 530.313 352.027C531.673 352.097 533.032 352.168 534.391 352.239C537.472 352.892 540.536 352.016 543.615 352.119C544.676 352.155 545.681 351.747 546.021 350.521L546.019 350.507C547.577 347.521 545.636 346.436 543.326 345.55C543.059 345.517 542.792 345.483 542.523 345.451C540.854 344.667 539.402 343.319 537.372 343.474C536.974 343.306 536.576 343.138 536.178 342.969C535.32 341.984 534.182 341.883 532.988 341.958L532.978 341.956C531.887 341.363 530.796 340.77 529.706 340.176C530.21 338.976 531.158 339.788 531.852 339.782C535.184 339.756 538.441 340.811 541.799 340.539C542.527 340.689 543.254 340.837 543.981 340.986C546.567 341.092 548.887 342.867 551.596 342.194C554.067 342.472 556.539 342.75 559.01 343.028C560.816 343.817 562.749 343.771 564.658 343.883C566.107 344.751 567.595 344.158 568.982 343.816C570.936 343.333 571.365 342.181 569.788 340.656C569.551 340.743 569.313 340.83 569.075 340.918C569.312 340.83 569.551 340.743 569.788 340.656C568.931 339.057 567.08 339.128 565.781 338.272C565.633 337.732 565.484 337.192 565.337 336.652C567.838 336.509 570.2 337.923 572.744 337.32L572.736 337.287C574.659 338.301 576.76 338.32 578.854 338.376C581.215 339.446 583.722 339.001 586.157 338.941C587.219 338.914 588.534 338.415 588.412 336.846C588.297 335.349 587.783 334.155 585.904 334.455C585.63 334.286 585.357 334.116 585.083 333.947C584.733 332.87 583.737 333.148 582.972 332.939C581.777 332.004 580.312 331.832 578.922 331.41C578.495 331.28 576.729 331.162 578.061 329.795C579.127 330.568 580.233 329.709 581.314 329.879C582.019 330.14 582.694 330.556 583.499 330.308C583.71 330.289 583.921 330.27 584.134 330.25C585.936 330.456 587.74 330.663 589.543 330.87C590.181 330.911 590.818 330.951 591.456 330.991C594.155 331.941 596.902 331.902 599.673 331.385C601.34 332.164 602.293 330.079 603.834 330.347C605.424 330.974 607.048 331.402 608.781 331.158C609.66 331.6 610.565 331.843 611.546 331.524C612.899 332.435 614.397 331.836 615.827 331.916C617.158 331.99 617.61 330.899 617.941 329.94C618.286 328.937 617.851 328.148 616.809 327.666C616.27 327.416 615.856 326.895 615.386 326.496C613.311 325.28 611.331 323.854 608.836 323.582C610.203 324.534 611.57 325.486 612.937 326.438C613.409 326.543 613.882 326.648 614.354 326.752C614.402 326.962 614.449 327.173 614.497 327.384C614.564 327.423 614.65 327.46 614.734 327.497C614.65 327.46 614.564 327.423 614.497 327.384C614.449 327.173 614.402 326.962 614.354 326.752C613.882 326.648 613.409 326.543 612.936 326.438C611.57 325.486 610.203 324.534 608.836 323.582C607.055 322.051 604.53 322.13 602.685 320.738C602.66 319.501 604.18 320.331 604.418 319.444C604.976 319.346 605.533 319.247 606.09 319.15C609.819 320.78 613.865 319.965 617.714 320.665C619.753 321.599 621.895 321.93 624.121 321.78C624.848 321.941 625.573 322.101 626.299 322.262C627.254 322.405 628.208 322.548 629.163 322.691L629.221 322.721C631.179 323.475 633.189 323.624 635.245 323.251C636.595 322.501 637.537 321.661 635.892 320.262C633.869 317.987 630.968 317.776 628.296 317.03C627.44 316.289 626.554 315.638 625.318 315.983C624.591 315.699 623.864 315.414 623.138 315.129C622.634 315.184 622.117 315.293 621.723 314.828C621.826 314.404 621.928 313.98 622.031 313.556C622.954 313.702 623.956 313.393 624.791 314.041C626.359 314.053 627.929 314.065 629.498 314.077C632.382 314.424 635.258 314.925 638.152 315.059C639.757 315.133 641.277 316.645 642.951 315.382C643.965 316.261 645.11 315.713 646.207 315.682C648.751 316.113 651.322 316.844 653.667 315.028C654.769 311.972 651.706 312.325 650.5 311.157C651.251 309.726 652.843 311.027 653.764 310.152C655.746 309.877 657.554 311.282 659.561 310.748C660.044 310.825 660.528 310.902 661.012 310.978C662.025 311.457 663.038 311.943 664.102 311C663.728 309.919 662.884 309.634 661.94 309.493C661.731 309.532 661.522 309.571 661.314 309.609C658.759 308.834 656.391 307.313 653.552 307.688C651.581 306.645 649.385 307.019 647.301 306.689C640.537 305.301 633.678 304.686 626.806 304.172C622.853 303.688 618.9 303.193 614.945 302.729C614.143 302.634 613.033 302.302 612.828 303.415Z" fill="#B4B4B4"/>
<path opacity="0.4" d="M68.6693 53.4492H68.6684C69.5051 53.4634 70.3418 53.4767 71.1776 53.4908C70.3418 53.4767 69.5051 53.4634 68.6693 53.4492ZM70.0434 56.7967C68.8609 56.4084 67.6618 56.0301 67.5668 54.9192C67.6618 56.0301 68.8618 56.4084 70.0451 56.7967C70.1218 56.8534 70.2018 56.8892 70.2868 56.9042C70.2018 56.8892 70.1209 56.8534 70.0434 56.7967ZM66.2068 53.4867C65.6751 52.9442 65.1451 52.4009 64.6134 51.8584L64.5818 51.9275C64.4184 52.1575 64.2351 52.3151 64.0368 52.4234C64.2351 52.3151 64.4184 52.1575 64.5818 51.9275C63.0359 52.1842 61.8859 51.0017 60.4668 50.7992C58.2084 49.5067 55.9501 48.2151 53.6918 46.9226C48.9676 44.9709 48.5084 45.2809 47.8242 50.8809C46.5951 51.8601 47.3801 53.1592 47.2801 54.3175C46.5109 55.17 45.8501 56.0667 46.0326 57.3151C44.4359 59.1184 42.8392 60.9209 41.2426 62.7242C39.0951 59.9575 39.9318 56.7209 39.8518 53.6409C39.8234 52.5459 40.8526 51.1642 38.8326 50.8184C38.8293 50.5834 38.7542 50.3742 38.6051 50.1917C35.2351 47.5559 34.6267 51.5142 32.8217 52.6142C29.7417 55.3467 26.1126 57.4834 23.7592 61.0009L23.7267 60.9959C20.3067 61.7875 22.1034 58.7984 21.3226 57.6776L21.2776 57.7209V57.72C22.4626 56.5459 22.1043 54.8059 22.8359 53.4651C23.9559 51.7926 25.0726 50.1167 26.1967 48.4467C26.8759 47.4392 27.8042 46.4784 27.1117 45.1267C26.3976 43.7309 25.1018 43.4176 23.6609 43.4242C21.2068 43.4359 18.7534 43.4292 16.2984 43.43C14.9901 42.5109 13.5159 42.6492 12.0451 42.7626C10.6651 42.4309 9.28423 42.0984 7.90423 41.7667C7.82589 41.9642 7.73672 42.1392 7.63755 42.295C7.43839 42.6067 7.19839 42.8417 6.93005 43.0167C6.66089 43.1917 6.36176 43.3075 6.04092 43.3842C6.36176 43.3075 6.66089 43.1917 6.93005 43.0167C7.19839 42.8417 7.43839 42.6067 7.63755 42.295C7.73672 42.1392 7.82589 41.9642 7.90423 41.7667C7.38173 41.4859 6.85924 41.2042 6.33674 40.9225C6.34424 39.7225 7.5984 40.0009 8.12507 39.4167C9.38174 38.8575 10.6376 38.2992 11.8942 37.7409C15.0984 38.6509 17.7801 36.7425 20.6992 36.1117C19.4817 36.065 18.2651 36.0167 17.0484 35.9692C18.2651 36.0167 19.4817 36.065 20.6992 36.1117C21.5059 35.1925 22.6768 35.2942 23.7209 35.0417C26.0393 34.6775 27.2642 33.3976 27.1292 30.9767C27.4084 30.4909 27.6868 30.0059 27.9659 29.5201V26.4601V29.5201C28.9118 25.9359 30.4584 22.49 30.4726 18.69C30.4401 18.34 30.4076 17.99 30.3751 17.64C29.6993 17.7134 29.4684 18.5142 29.2376 19.315C29.4684 18.5142 29.6993 17.7134 30.3751 17.64C30.6701 16.5934 30.7151 15.4726 30.7992 14.3626C30.7151 15.4726 30.6701 16.5934 30.3751 17.64C30.4076 17.99 30.4401 18.3401 30.4726 18.6892C32.5268 16.9184 32.3309 14.3076 32.9626 12.0067C34.8801 10.4318 35.2667 8.27175 35.2717 5.96509C36.8892 5.36592 37.0992 7.03921 37.9742 7.64004C38.6092 12.6767 38.9534 17.7617 40.5143 22.6409C40.7751 22.9317 41.0368 23.2225 41.2976 23.5125C41.0368 23.2225 40.7751 22.9317 40.5143 22.6409C40.4301 24.3734 40.0268 26.435 41.7101 27.4159C42.9501 28.1392 44.5284 27.5484 45.2417 25.9259C46.1142 25.0567 46.9868 24.1867 47.8584 23.3176C48.9184 23.4334 49.2659 22.6809 49.5893 21.8984C52.9809 21.1117 56.3009 20.1042 59.4684 18.6334C59.4534 18.8809 59.5326 19.095 59.7034 19.2742C60.0084 22.0342 57.3434 23.4842 56.7951 25.8684C56.0701 26.7042 54.5909 26.7659 54.4251 28.1775C48.7743 32.15 48.6284 34.4617 53.7792 38.4476C54.6409 39.5692 55.3218 40.9326 57.0468 40.9109C57.7926 41.8159 58.5401 42.7209 59.2859 43.6267H59.2868C60.8651 45.955 62.4343 48.2909 64.6251 50.115C64.6218 50.6959 64.6176 51.2775 64.6134 51.8584C65.1451 52.4009 65.6759 52.9442 66.2068 53.4867ZM64.7551 54.2767C64.9218 53.9242 65.2309 53.6659 65.7542 53.5509C65.2309 53.6659 64.9218 53.9242 64.7551 54.2767ZM51.6509 51.6809H51.6526C51.7192 51.73 51.7909 51.7675 51.8668 51.7934C51.7909 51.7675 51.7184 51.73 51.6509 51.6809ZM48.2326 51.3192C48.4451 51.4959 48.6726 51.6009 48.9051 51.6784C48.6726 51.6009 48.4451 51.4967 48.2326 51.3192ZM48.4484 59.1867H48.4492C48.4484 59.1859 48.5843 59.2509 48.6759 59.295L48.4484 59.1867ZM46.0926 58.1725C46.1867 58.8834 46.4118 59.4233 46.9684 59.5367C46.4118 59.4242 46.1867 58.8842 46.0926 58.1725ZM37.9026 56.8034C37.3201 56.2317 36.7384 55.6609 36.1551 55.0909C36.7376 55.6609 37.3201 56.2317 37.9026 56.8034C38.2867 57.0059 38.4909 57.2933 38.5976 57.6292C38.4909 57.2933 38.2867 57.0059 37.9026 56.8034ZM33.5409 53.6642C33.9101 53.3367 34.3501 53.0267 34.5243 52.6225H34.5251C34.3509 53.0267 33.9101 53.3367 33.5409 53.6642ZM21.9992 65.8867C22.0201 65.3583 22.0401 64.8292 22.0593 64.3C22.0401 64.8292 22.0201 65.3583 21.9992 65.8867ZM22.0851 47.6567C22.6351 47.9367 23.1842 48.2167 23.7334 48.4959V48.4967C23.1842 48.2167 22.6351 47.9367 22.0851 47.6567ZM20.4634 56.5401C20.6276 56.6034 20.8151 56.6609 21.0326 56.7084C21.3193 55.6134 20.8643 54.2917 22.0243 53.4634C22.0768 52.555 22.6017 51.8101 23.0651 51.0434C22.6017 51.8101 22.0767 52.555 22.0251 53.4634C20.8642 54.2917 21.3192 55.6133 21.0342 56.7092C20.8159 56.6608 20.6276 56.6034 20.4634 56.5401ZM17.9059 63.4875C18.3142 64.8592 18.6076 66.3092 20.4534 66.7133V66.715C18.6076 66.31 18.3142 64.86 17.9059 63.4875ZM14.5534 43.6259C14.5534 43.6251 14.5534 43.625 14.5526 43.625C15.1101 43.5634 15.6668 43.5009 16.2234 43.4375C15.6668 43.5009 15.1101 43.5634 14.5534 43.6259ZM13.7184 45.9684C13.7251 45.955 13.7343 45.94 13.7343 45.94C13.7343 45.9392 13.7251 45.955 13.7184 45.9684ZM2.35755 39.6634C3.04589 39.2484 3.72089 39.5601 4.39089 40.0867C3.72089 39.5601 3.04589 39.2484 2.35755 39.6634ZM2.07089 42.6709C1.86672 42.5609 1.71423 42.4284 1.59756 42.2809C1.71423 42.4284 1.86672 42.5609 2.07089 42.6709ZM32.8626 9.30422C33.3392 8.80172 33.4301 8.02091 33.6568 7.33924C33.4301 8.02091 33.3392 8.80172 32.8626 9.30422C31.8334 10.155 31.3426 11.1667 31.0851 12.2492C31.3426 11.1667 31.8326 10.155 32.8626 9.30422ZM43.6559 20.0609C43.0818 20.8576 41.6101 21.4367 42.9359 22.6934C42.9259 22.9551 42.9134 23.2175 42.8968 23.4792C43.4559 24.2775 44.0159 25.0759 44.5751 25.875C44.0159 25.0759 43.4559 24.2776 42.8968 23.4784C42.9134 23.2176 42.9259 22.9551 42.9359 22.6934C41.6093 21.4367 43.0818 20.8576 43.6559 20.0609ZM46.1784 21.7392C46.7276 21.475 47.2776 21.21 47.8259 20.945C48.2326 20.975 48.6209 21.0376 48.9493 21.2134C48.6209 21.0376 48.2326 20.975 47.8259 20.945C47.2776 21.21 46.7276 21.4751 46.1784 21.7401C45.5959 21.9109 45.0118 22.0834 44.4284 22.2551C45.0118 22.0834 45.5959 21.9109 46.1784 21.7392ZM47.9259 20.1725C49.3326 19.6359 50.7176 19.0667 51.9076 18.1942C50.7176 19.0667 49.3326 19.6359 47.9259 20.1725C47.9076 20.2784 47.8992 20.3851 47.8851 20.4909C47.8992 20.3851 47.9067 20.2775 47.9259 20.1725ZM61.2934 16.0726V16.0734C60.3601 15.7926 59.3959 16.2626 58.4484 16.3309C59.3959 16.2626 60.3609 15.7917 61.2934 16.0726ZM52.0251 32.6342C52.5926 32.6359 53.1592 32.6384 53.7251 32.64C53.8251 32.4675 53.9401 32.3309 54.0684 32.2225C53.9401 32.3309 53.8251 32.4675 53.7251 32.64C53.7209 32.985 53.6593 33.2734 53.5459 33.5092C53.6593 33.2734 53.7209 32.985 53.7251 32.64C53.1592 32.6384 52.5918 32.6359 52.0251 32.6342ZM55.3993 37.6042C55.9134 38.6376 56.4292 39.6709 56.9434 40.7042C56.4292 39.6709 55.9134 38.6376 55.3984 37.6042C55.3426 36.4392 54.5859 35.9892 53.7792 35.5892C54.5859 35.9892 55.3426 36.4392 55.3993 37.6042ZM61.2726 43.4242C61.5134 45.2626 63.3409 45.9942 64.4759 47.2084C63.3409 45.9951 61.5134 45.2634 61.2718 43.425C61.2726 43.425 61.2726 43.4242 61.2726 43.4242ZM62.0826 41.4684C62.051 42.0751 62.0243 42.6834 61.5868 43.1576C62.0234 42.6834 62.051 42.0751 62.0826 41.4684ZM72.2993 53.4067C71.7143 51.9076 70.5209 50.6442 69.5926 49.2775C66.7393 46.7609 65.3818 42.9384 62.1509 40.7501C60.5059 38.2751 58.3993 36.2417 56.0476 34.4592C55.0643 33.7151 54.6092 32.9509 55.4892 31.8526C56.7592 30.9934 58.3559 30.4901 58.8409 28.7759C63.4151 25.3451 65.2801 20.8026 63.8026 16.6859C63.5309 16.4267 63.2584 16.1676 62.9859 15.9092C60.9634 14.6984 58.9351 14.8426 56.9034 15.8826C55.7901 16.0484 54.5526 15.5859 53.5918 16.5326C51.1409 17.2667 48.5168 17.6834 46.9959 20.1251C45.5818 20.9534 44.3959 21.0226 43.7942 19.1584C43.8617 18.9034 43.8043 18.6809 43.6234 18.4892C43.6201 18.2001 43.6159 17.9109 43.6117 17.6209C43.7626 14.6767 42.9693 11.8959 42.1443 9.12004C42.0209 7.30838 41.7834 5.53341 40.5226 4.08841C40.1776 2.66008 39.5584 1.4359 38.1059 0.829234C35.0942 -0.899098 33.3459 0.137557 32.5917 3.34922C32.4259 3.67422 32.2592 3.99921 32.0926 4.32421C31.4867 5.69671 30.8809 7.07008 30.2751 8.44342C28.6443 12.2442 26.5559 15.8892 26.2634 20.1492C26.0451 22.1717 24.1526 23.7317 24.6593 25.9551C23.7284 27.4742 22.4684 28.8717 22.8359 30.8734C20.8209 33.05 17.6201 31.8667 15.4109 33.4934C13.8017 34.3626 11.6976 33.3051 10.2542 34.8201C7.07257 34.9184 4.49255 36.715 2.02338 38.2975C0.11255 39.5225 -1.37078 41.7992 2.04256 43.5192C4.82256 46.1276 8.39422 46.4775 11.9126 46.9825C12.0234 46.84 12.1351 46.6959 12.2459 46.5517V46.5525C12.7267 46.3742 13.2084 46.1951 13.6901 46.0151C14.9317 46.7426 16.2293 46.8751 17.5426 46.8509C16.2293 46.8751 14.9317 46.7425 13.6901 46.0159C13.2084 46.195 12.7267 46.3742 12.2459 46.5525C12.1359 46.695 12.0234 46.8392 11.9126 46.9825C13.8759 48.17 16.0201 47.8125 18.1192 47.6442C20.0426 47.49 20.9118 48.1559 20.4051 50.1484C20.1551 50.7059 19.9051 51.2634 19.6559 51.8209C17.5592 54.8392 16.8843 58.2117 17.1584 61.8217C17.1959 62.6217 17.1918 63.4276 17.2784 64.2225C17.4309 65.6275 17.0526 67.6317 18.8334 67.9C20.1967 68.105 22.1451 67.96 22.7884 65.9609C23.0984 65.7076 23.4076 65.4533 23.7168 65.2008C25.6059 65.3917 26.1684 63.7225 27.2001 62.7125C27.4568 62.4842 27.7134 62.2567 27.9692 62.0275C29.2626 61.2975 29.7284 59.5959 31.3009 59.195C32.7517 58.8259 33.1959 55.78 35.4784 57.6259C35.2442 61.0317 35.1284 64.4301 36.0626 67.7684C37.3593 70.5851 37.5784 70.6792 39.3451 69.1834C40.5251 68.3934 41.7051 67.6025 42.8859 66.8117C43.3784 66.7775 43.7334 66.5809 43.7951 66.0409C45.7393 64.0201 47.5901 61.9292 48.7584 59.3342C51.6251 57.6167 50.7109 54.2117 52.1068 51.8384C53.4726 52.3584 54.8384 52.8775 56.2051 53.3967C56.1743 53.0792 56.1442 52.7617 56.1142 52.4442V52.4451C56.1442 52.7609 56.1743 53.0784 56.2051 53.3967C57.5984 53.9759 58.5334 55.7084 60.4109 55.0683C61.2326 55.695 62.0543 56.3225 62.8759 56.95C65.0493 58.0317 67.1876 59.41 69.6893 57.7709C69.976 57.475 70.2634 57.1809 70.5501 56.8851C73.9601 57.1734 72.8701 54.8726 72.2993 53.4067Z" fill="#B4B4B4"/>
<path opacity="0.4" d="M578.894 160.775C578.096 160.501 577.676 160.919 577.331 161.437C577.676 160.919 578.096 160.501 578.894 160.775ZM578.584 161.484C578.602 161.493 578.621 161.501 578.641 161.51C578.621 161.501 578.602 161.493 578.584 161.484C578.385 161.389 578.292 161.258 578.677 160.969C578.695 160.953 578.714 160.936 578.733 160.919C578.714 160.936 578.695 160.952 578.677 160.969C578.292 161.258 578.385 161.389 578.584 161.484ZM578.318 162.574C578.299 162.608 578.281 162.644 578.263 162.68C578.281 162.644 578.299 162.608 578.318 162.574ZM578.566 162.239C578.518 162.288 578.473 162.341 578.432 162.396C578.473 162.341 578.518 162.288 578.566 162.239ZM579.262 161.854C579.077 161.899 578.92 161.968 578.785 162.057C578.92 161.968 579.077 161.899 579.262 161.854ZM579.427 161.61C579.537 161.553 579.646 161.496 579.756 161.438C579.646 161.496 579.537 161.553 579.427 161.61C579.427 161.61 579.377 161.636 579.377 161.636L579.427 161.61ZM581.672 156.404C581.6 156.573 581.528 156.742 581.456 156.911C581.334 156.963 581.211 157.014 581.089 157.066C581.211 157.015 581.334 156.963 581.456 156.911C581.528 156.742 581.6 156.573 581.672 156.404ZM581.797 156.13C581.751 156.167 581.702 156.202 581.659 156.241C581.702 156.202 581.751 156.167 581.797 156.13C581.916 155.875 582.035 155.62 582.154 155.366C582.035 155.62 581.916 155.875 581.797 156.13ZM584.242 145.103C584.385 145.798 584.311 146.469 584.183 147.135C584.311 146.469 584.385 145.798 584.242 145.103ZM584.527 143.766C584.5 144.036 584.473 144.307 584.445 144.577C584.26 144.601 584.145 144.706 584.058 144.843C584.145 144.706 584.26 144.601 584.446 144.577C584.473 144.307 584.5 144.036 584.527 143.766ZM584.62 143.412C584.703 143.24 584.785 143.068 584.868 142.896C584.785 143.068 584.703 143.24 584.619 143.412C584.582 143.452 584.541 143.491 584.507 143.533C584.541 143.491 584.582 143.452 584.62 143.412C584.592 143.503 584.563 143.593 584.535 143.684C584.563 143.593 584.592 143.503 584.62 143.412ZM585.359 139.693C585.196 139.34 585.295 139.084 585.641 138.918C585.725 138.734 585.884 138.545 585.911 138.367C585.884 138.545 585.725 138.734 585.64 138.918C585.295 139.084 585.196 139.34 585.359 139.693C585.331 139.788 585.304 139.883 585.276 139.977C585.166 140.255 584.984 140.52 585.147 140.839C584.984 140.52 585.166 140.255 585.276 139.977C585.304 139.883 585.331 139.788 585.359 139.693ZM584.769 141.94C584.775 141.843 584.807 141.744 584.849 141.645V141.644C584.807 141.744 584.775 141.843 584.769 141.94ZM582.905 149.975C582.894 149.923 582.874 149.872 582.841 149.821C582.874 149.872 582.894 149.923 582.905 149.975ZM578.612 162.193C578.658 162.15 578.707 162.112 578.76 162.075C578.707 162.112 578.658 162.15 578.612 162.193ZM582.544 153.097C582.535 153.12 582.525 153.143 582.514 153.166C582.492 153.211 582.469 153.257 582.446 153.303C582.469 153.257 582.492 153.211 582.514 153.166C582.525 153.143 582.535 153.12 582.544 153.097ZM584.044 149.698C583.929 149.742 583.814 149.786 583.699 149.83C583.814 149.786 583.929 149.742 584.044 149.698ZM580.114 159.113C580.006 159.17 579.899 159.226 579.791 159.283C579.899 159.226 580.006 159.17 580.114 159.113C580.164 159.037 580.21 158.959 580.252 158.878C580.21 158.959 580.164 159.037 580.114 159.113ZM579.054 160.893H579.054C579.308 160.373 579.176 159.98 578.668 159.71C579.176 159.98 579.308 160.373 579.054 160.893ZM583.461 160.141C583.276 160.24 583.093 160.341 582.91 160.441C583.093 160.341 583.276 160.24 583.461 160.141ZM583.747 160.702C583.644 160.787 583.536 160.863 583.424 160.933C583.536 160.863 583.644 160.787 583.747 160.702ZM584.028 160.412C583.971 160.489 583.907 160.557 583.84 160.62C583.907 160.557 583.971 160.489 584.028 160.412ZM587.214 158.9C587.094 158.96 586.977 159.023 586.86 159.088C586.977 159.023 587.094 158.96 587.214 158.9ZM586.869 149.327C586.783 149.205 586.681 149.089 586.589 148.969C586.661 148.781 586.733 148.592 586.805 148.403C586.964 148.485 587.074 148.411 587.169 148.287C587.047 148.326 586.926 148.365 586.805 148.403C586.733 148.592 586.661 148.781 586.589 148.969C586.681 149.089 586.783 149.205 586.869 149.327ZM598.321 126.299C598.182 126.625 597.964 126.915 597.766 127.214C597.681 127.179 597.597 127.143 597.512 127.105C597.597 127.143 597.681 127.179 597.766 127.214C597.964 126.915 598.182 126.625 598.321 126.299ZM617.279 90.2493C617.317 90.1594 617.355 90.0696 617.393 89.9801C617.355 90.0696 617.317 90.1594 617.279 90.2493C617.17 90.8132 616.734 91.2815 616.62 91.844C616.734 91.281 617.17 90.8132 617.279 90.2493ZM602.203 114.724C602.216 114.616 602.231 114.508 602.253 114.4C602.231 114.508 602.216 114.616 602.203 114.724ZM603.982 107.625C603.86 107.425 603.883 107.239 603.944 107.057C603.883 107.239 603.86 107.425 603.982 107.625C603.982 107.625 603.994 107.624 604.004 107.623L603.982 107.625ZM600.528 117.569C600.563 117.483 600.599 117.396 600.636 117.31C600.888 117.266 600.994 117.157 600.954 116.983C600.994 117.157 600.888 117.266 600.636 117.31C600.599 117.396 600.563 117.483 600.528 117.569ZM600.166 118.473C600.251 118.26 600.337 118.047 600.422 117.834C600.479 117.785 600.542 117.74 600.588 117.682C600.542 117.74 600.479 117.785 600.422 117.834C600.337 118.047 600.251 118.26 600.166 118.473ZM599.898 120.117C599.867 120.263 599.831 120.409 599.788 120.554C599.831 120.409 599.867 120.263 599.898 120.117C599.963 119.825 600.014 119.531 600.087 119.241C600.152 119.221 600.228 119.215 600.288 119.19C600.228 119.215 600.152 119.221 600.087 119.241C600.014 119.531 599.963 119.825 599.898 120.117ZM595.958 129.21L595.956 129.205L595.958 129.21ZM602.533 115.538C602.557 115.522 602.582 115.499 602.607 115.471C602.582 115.499 602.557 115.522 602.533 115.538C602.432 115.605 602.331 115.568 602.226 115.316C602.331 115.568 602.432 115.605 602.533 115.538ZM607.875 119.37L607.828 119.301C607.848 119.331 607.875 119.37 607.875 119.37ZM604.798 100.216C604.606 99.4304 604.86 98.7454 605.15 98.0683C604.86 98.7454 604.606 99.4304 604.798 100.217C604.798 100.217 604.844 100.206 604.867 100.2L604.798 100.216ZM605.022 92.8339C605.034 92.8352 605.053 92.8366 605.053 92.8366C605.053 92.8366 605.034 92.8352 605.022 92.8339ZM580.756 126.532C581.312 126.323 581.31 125.712 581.62 125.325C581.911 125.239 582.201 125.231 582.489 125.341C582.524 125.572 582.558 125.803 582.593 126.035C582.528 126.161 582.537 126.281 582.626 126.394C582.544 126.457 582.523 126.536 582.562 126.632C582.275 127.141 581.967 127.644 582.126 128.273C582.126 128.273 582.126 128.298 582.126 128.298C582.021 128.527 581.963 128.761 582.062 129.008C582.062 129.008 581.987 129.085 581.987 129.085L582.023 129.187C581.83 129.567 581.597 129.939 581.76 130.398C581.647 130.539 581.589 130.696 581.627 130.88C581.503 131.079 581.451 131.283 581.577 131.499C581.397 131.734 581.287 131.972 581.55 132.228L581.537 132.253C581.099 132.428 581.123 132.779 581.198 133.149L581.197 133.167C581.079 133.482 580.751 133.758 581.013 134.145L580.946 134.226L580.988 134.321C580.864 134.721 580.432 135.049 580.705 135.541C580.599 135.683 580.543 135.837 580.592 136.015C580.46 136.239 580.296 136.456 580.478 136.73C580.478 136.73 580.473 136.743 580.473 136.743C580.224 136.804 580.131 136.924 580.311 137.147C580.064 137.5 580.007 137.884 580.13 138.297C580.044 138.774 579.627 139.173 579.789 139.709C579.679 140.01 579.553 140.308 579.7 140.633C579.586 140.786 579.492 140.944 579.552 141.147C579.344 141.725 579.31 142.329 579.3 142.935C579.212 142.998 579.19 143.079 579.236 143.178C579.12 143.336 579.152 143.481 579.278 143.616C579.232 143.766 579.186 143.916 579.14 144.067C578.964 144.283 578.939 144.507 579.102 144.742C579.029 144.805 579.014 144.879 579.059 144.965C578.862 145.322 578.598 145.664 578.804 146.109C578.753 146.277 578.784 146.426 578.904 146.555C578.783 146.678 578.715 146.82 578.746 146.999C578.504 147.275 578.548 147.585 578.642 147.9C578.53 148.211 578.339 148.51 578.499 148.863C578.43 148.938 578.434 149.01 578.51 149.077C578.432 149.218 578.444 149.348 578.553 149.466C578.476 149.523 578.456 149.595 578.491 149.684C578.316 149.887 578.226 150.098 578.424 150.335C578.369 150.712 578.116 151.067 578.299 151.47C578.23 151.644 578.16 151.818 578.091 151.992C578.138 152.112 578.186 152.232 578.233 152.352L578.235 152.364C578.134 152.649 577.936 152.923 578.143 153.241L578.144 153.261C578.05 153.471 577.944 153.682 578.123 153.898C578.024 154.121 578.088 154.334 578.167 154.546C578.158 154.638 578.148 154.731 578.139 154.824C578.057 154.959 578.086 155.082 578.177 155.2C578.096 155.254 578.072 155.326 578.104 155.418C577.92 155.696 577.856 155.982 578.037 156.287L578.042 156.318C577.978 156.472 577.981 156.619 578.091 156.754C578.012 156.811 578.002 156.878 578.061 156.956C577.935 157.162 577.873 157.372 578.018 157.594C577.939 157.885 577.818 158.174 577.957 158.481C577.855 158.772 577.709 159.058 577.852 159.377C577.778 159.446 577.759 159.529 577.793 159.625C577.721 159.74 577.639 159.902 577.629 160.026C577.639 159.902 577.721 159.74 577.793 159.625C577.883 159.676 577.973 159.728 578.063 159.779C578.164 159.724 578.265 159.668 578.366 159.612C578.309 159.572 578.252 159.53 578.197 159.486C578.259 159.326 578.321 159.165 578.383 159.004C578.468 158.985 578.55 158.995 578.628 159.034C578.781 158.701 578.934 158.37 579.087 158.038C579.254 157.97 579.326 157.845 579.308 157.667C580.071 157.18 580.178 156.31 580.521 155.578C580.521 155.578 580.52 155.578 580.52 155.578C581.044 155.476 580.973 155.092 580.925 154.718L580.968 154.626C581.214 154.538 581.348 154.341 581.458 154.119L581.465 154.114C581.539 154.125 581.612 154.142 581.684 154.165C581.683 154.098 581.709 154.043 581.762 154C581.697 153.963 581.638 153.917 581.585 153.864C581.648 153.688 581.711 153.512 581.775 153.336C581.878 153.337 581.928 153.285 581.924 153.181C582.28 153.057 582.33 152.689 582.518 152.432C582.46 152.369 582.4 152.309 582.338 152.251C582.417 152.2 582.434 152.133 582.389 152.051C582.469 151.88 582.55 151.709 582.63 151.538C582.678 151.388 582.725 151.237 582.773 151.086C582.634 150.84 582.709 150.609 582.824 150.382L582.824 150.374C582.699 150.172 582.659 149.965 582.784 149.748C582.719 149.689 582.657 149.629 582.598 149.565C582.679 149.521 582.699 149.457 582.658 149.373C582.832 149.089 582.909 148.791 582.777 148.468C582.932 148.184 582.95 147.885 582.872 147.577C583.027 147.292 583.087 146.996 582.982 146.679C583.082 146.437 583.091 146.195 582.975 145.954L583.033 145.872L582.986 145.784C583.042 145.705 583.097 145.627 583.152 145.549C583.103 145.455 583.119 145.374 583.199 145.305C583.159 145.223 583.11 145.146 583.054 145.073L583.134 145.007L583.102 144.909C583.268 144.696 583.314 144.477 583.144 144.25C583.201 144.189 583.219 144.119 583.198 144.039C583.402 144.009 583.409 143.896 583.314 143.74C583.462 143.506 583.541 143.267 583.357 143.01L583.432 142.996L583.445 142.922C583.831 142.645 583.512 142.114 583.841 141.817C583.798 141.69 583.754 141.563 583.711 141.436C583.823 140.964 584.168 140.551 584.071 140.028C584.194 139.613 584.472 139.228 584.312 138.759L584.376 138.702L584.343 138.623C584.55 137.926 584.941 137.261 584.701 136.489L584.778 136.417L584.748 136.316C584.981 135.836 585.198 135.351 585.144 134.795C585.144 134.794 585.218 134.733 585.218 134.733L585.181 134.644C585.402 134.349 585.431 134.025 585.322 133.681C585.446 133.546 585.502 133.391 585.457 133.208C585.612 132.522 586.029 131.884 585.835 131.134C585.916 131.076 585.933 131.004 585.888 130.916C586.042 130.691 586.089 130.457 585.945 130.208L586.025 130.139L585.999 130.036C586.213 129.662 586.291 129.262 586.226 128.835C586.313 128.789 586.344 128.719 586.318 128.624C586.576 128.337 586.567 128.019 586.427 127.686C586.503 127.619 586.521 127.539 586.48 127.447C586.641 127.169 586.718 126.878 586.626 126.559C586.754 126.187 586.964 125.83 586.839 125.412C587.018 124.639 587.328 123.888 587.243 123.069C587.328 123.014 587.351 122.94 587.311 122.846C587.439 122.559 587.636 122.282 587.431 121.952C587.591 121.586 587.772 121.223 587.618 120.805V120.798C587.684 120.484 587.859 120.186 587.757 119.846L587.805 119.742C588.308 119.54 588.812 119.38 589.328 119.706L589.332 119.717C589.354 120.198 589.806 120.594 589.606 121.119L589.607 121.093C589.443 121.476 589.183 121.843 589.403 122.292C589.308 122.347 589.289 122.422 589.345 122.517C589.03 123.167 588.895 123.851 588.968 124.573C588.969 124.573 588.965 124.556 588.965 124.556C588.815 124.976 588.664 125.396 588.514 125.815C588.814 126.26 588.319 126.684 588.477 127.124C588.354 127.416 588.073 127.694 588.396 128.026C588.478 128.927 587.612 129.644 587.899 130.584L587.895 130.578C587.546 132.412 587.013 134.214 586.983 136.101C586.983 136.1 586.978 136.079 586.978 136.079C585.941 138.417 585.829 140.97 585.276 143.42L585.273 143.403C584.997 144.099 584.962 144.833 584.921 145.567C584.921 145.568 584.867 145.642 584.867 145.642L584.914 145.722C584.429 146.417 584.567 147.202 584.616 147.967C584.62 148.029 584.857 148.076 584.985 148.129C585.298 147.475 585.611 146.821 585.924 146.166L585.93 146.161C586.231 146.109 586.263 145.91 586.203 145.66C586.265 145.499 586.328 145.337 586.39 145.176C586.594 145.137 586.644 145.027 586.539 144.847C586.666 144.713 586.806 144.584 586.757 144.368C586.796 144.281 586.835 144.194 586.874 144.107C587.053 144.032 587.092 143.886 587.073 143.711C587.392 143.678 587.518 143.46 587.58 143.18C587.799 143.019 587.903 142.798 587.913 142.529C588.482 142.258 588.24 141.872 588.068 141.496C588.904 139.913 589.418 138.212 589.88 136.493C589.898 136.426 589.809 136.331 589.77 136.249L589.848 136.191L589.817 136.099C589.855 136.011 589.893 135.923 589.93 135.836C589.966 135.749 590.002 135.663 590.038 135.576C590.283 135.136 590.436 134.674 590.355 134.16C590.399 134.078 590.444 133.996 590.489 133.914C591.088 132.709 591.244 131.413 591.266 130.089L591.348 130.025L591.312 129.927C591.479 129.555 591.793 129.214 591.571 128.761C591.829 128.464 591.958 128.153 591.667 127.797L591.748 127.738L591.732 127.639C592.317 127.388 591.9 127.034 591.833 126.715C592.037 126.418 592.331 126.132 591.949 125.76C592.029 125.718 592.049 125.656 592.009 125.575C592.244 125.298 592.333 125.001 592.154 124.663C592.294 124.291 592.492 123.929 592.34 123.511C592.681 122.865 592.785 122.188 592.616 121.474C592.884 121.121 592.975 120.737 592.829 120.309C592.883 119.929 593.284 119.599 592.995 119.168L592.994 119.163C593.048 119.088 593.081 119.005 593.094 118.913C593.024 118.858 592.958 118.798 592.897 118.734C592.948 118.667 592.959 118.594 592.929 118.515C593.364 117.964 593.335 117.356 593.15 116.729C593.208 116.647 593.227 116.557 593.205 116.458C593.261 116.305 593.317 116.153 593.373 116.001C593.449 115.975 593.524 115.949 593.599 115.921C593.524 115.949 593.449 115.975 593.373 116.001C593.342 115.933 593.306 115.869 593.264 115.809C593.341 115.761 593.37 115.693 593.349 115.604C593.533 115.371 593.497 115.127 593.383 114.88C593.442 114.822 593.449 114.758 593.406 114.689C593.489 114.526 593.482 114.371 593.368 114.224C593.4 114.075 593.432 113.926 593.465 113.776C593.627 113.579 593.679 113.376 593.493 113.162C593.514 113.069 593.534 112.976 593.555 112.884C593.709 112.606 593.88 112.331 593.708 111.996C593.771 111.827 593.834 111.656 593.897 111.486C594.317 111.009 594.022 110.314 594.399 109.825C594.357 109.697 594.313 109.57 594.27 109.442C594.323 109.272 594.376 109.102 594.428 108.931C594.334 108.918 594.257 108.874 594.197 108.8C594.252 108.727 594.279 108.645 594.279 108.554C594.404 108.295 594.529 108.037 594.654 107.778C594.783 107.943 594.912 108.107 595.042 108.271C595.07 108.219 595.096 108.166 595.121 108.112C595.096 108.166 595.07 108.219 595.042 108.271C594.912 108.107 594.783 107.943 594.654 107.778C594.643 106.872 595.163 106.026 594.963 105.098C595.119 104.863 595.116 104.634 594.927 104.415C595 104.37 595.025 104.305 595.004 104.221C595.566 103.92 595.167 103.426 595.242 103.028C595.242 103.028 595.24 103.057 595.24 103.057C595.436 102.754 595.592 102.446 595.346 102.093C595.43 102.043 595.445 101.978 595.388 101.897C595.525 101.391 595.866 100.906 595.558 100.355C595.724 99.7727 595.773 99.1842 595.661 98.5864C596.019 98.319 596.021 98.0146 595.754 97.6828C595.817 97.5106 595.79 97.3542 595.668 97.215L595.734 97.1441L595.691 97.0582C595.834 96.6789 596.324 96.6093 596.448 96.2128C596.757 96.1784 597.036 96.5427 597.361 96.2899C597.421 96.3674 597.491 96.3789 597.572 96.3234C597.711 96.4185 597.851 96.5132 597.991 96.6079C597.95 96.8203 598.002 97.0141 598.116 97.1947L598.115 97.2079C598.03 97.3731 598.031 97.5309 598.159 97.6762L598.087 97.745L598.126 97.8361C597.933 98.5397 597.4 99.1837 597.752 99.9824C597.617 100.095 597.547 100.228 597.612 100.407C597.418 100.856 596.942 101.3 597.583 101.768C597.438 101.895 597.353 102.036 597.482 102.224C597.415 102.373 597.411 102.519 597.497 102.662C597.497 102.663 597.416 102.699 597.416 102.699L597.425 102.789C596.678 103.476 596.922 104.477 596.832 105.289C596.769 105.86 596.15 106.492 596.705 107.117L596.726 107.1C596.326 107.776 596.156 108.486 596.416 109.257L596.406 109.225C596.261 109.543 596.119 109.86 596.307 110.212L596.229 110.277L596.264 110.374C596.123 110.555 596.198 110.697 596.345 110.826C596.271 110.848 596.242 110.897 596.259 110.973C595.602 111.36 595.81 111.951 595.901 112.514L595.837 112.6L595.884 112.697C595.679 113.053 595.584 113.431 595.645 113.843C595.577 114.23 595.178 114.551 595.401 114.997C595.258 115.224 595.237 115.44 595.455 115.635C595.348 115.872 595.224 116.109 595.426 116.361L595.366 116.451L595.429 116.538C595.322 116.741 595.236 116.946 595.356 117.172C595.126 117.75 594.773 118.314 595.16 118.957C594.981 119.349 594.843 119.747 594.971 120.188L594.916 120.281L594.971 120.374C594.92 120.438 594.883 120.509 594.86 120.587C594.926 120.641 594.988 120.698 595.046 120.76C594.988 120.826 594.963 120.903 594.967 120.991C594.888 120.994 594.813 120.979 594.741 120.945C594.764 121.054 594.721 121.117 594.609 121.135C594.577 121.223 594.544 121.312 594.512 121.401C594.696 121.617 594.525 121.817 594.485 122.023L594.492 122.037C594.583 122.053 594.662 122.091 594.73 122.153C594.631 122.443 594.448 122.724 594.621 123.049C594.505 123.299 594.39 123.549 594.275 123.799C594.264 124.115 593.833 124.369 594.123 124.729C593.859 126.008 593.71 127.3 593.714 128.607C593.714 128.607 593.622 128.672 593.622 128.672L593.642 128.784C593.144 129.018 593.23 129.348 593.471 129.704C593.078 130.049 593.142 130.444 593.346 130.854C593.159 131.312 592.783 131.721 592.986 132.276C592.933 132.443 592.88 132.611 592.827 132.779C592.37 133.244 592.428 133.834 592.259 134.58C593.027 134.235 593.018 133.675 593.181 133.225C593.337 133.104 593.441 132.953 593.448 132.748C593.597 132.397 593.746 132.046 593.894 131.695C593.977 131.653 594.029 131.587 594.05 131.498C594.121 131.523 594.193 131.541 594.268 131.551C594.318 131.41 594.318 131.282 594.189 131.187C594.796 130.447 595.109 129.545 595.556 128.717C595.659 128.687 595.696 128.621 595.667 128.518C595.868 128.465 595.92 128.345 595.824 128.16C595.916 128.113 595.945 128.041 595.911 127.943C595.954 127.858 595.997 127.773 596.041 127.687L596.127 127.645L596.111 127.55C596.38 127.274 596.852 127.092 596.557 126.561L596.586 126.49C597.338 125.771 597.873 124.927 598.082 123.893H598.085C598.166 123.829 598.186 123.75 598.146 123.655C598.181 123.568 598.215 123.481 598.249 123.394C599.038 121.488 599.518 119.481 600.155 117.526C600.409 116.749 600.783 115.992 600.725 115.137C601.254 113.209 601.784 111.281 602.313 109.352C602.529 109.359 602.723 109.307 602.894 109.196C602.723 109.307 602.529 109.359 602.313 109.352C602.291 109.26 602.318 109.184 602.392 109.125C602.211 108.088 602.675 107.145 602.816 106.154L602.814 106.141C602.621 105.113 603.105 104.118 602.962 103.092C603.227 102.133 603.388 101.154 603.505 100.167C603.53 99.9489 603.409 99.8529 603.281 99.7445C603.339 99.7111 603.354 99.6644 603.328 99.6036C603.562 99.563 603.594 99.4348 603.475 99.2414C603.989 97.8846 604.12 96.4458 604.364 95.0313C604.387 95.004 604.426 94.9784 604.43 94.9485C604.439 94.8837 604.429 94.8172 604.426 94.7511C604.491 94.3775 604.556 94.004 604.621 93.6304L604.501 93.5819L604.404 93.4965C604.514 93.285 604.651 93.0766 604.48 92.8326C604.561 92.5828 604.642 92.333 604.723 92.0828C604.82 92.333 604.916 92.5828 605.013 92.833V92.8335C604.916 92.5828 604.82 92.333 604.723 92.0828C604.932 91.048 604.975 89.9731 605.456 89.0035C605.456 89.0035 605.482 89.0017 605.482 89.0017C605.647 89.0863 605.782 89.0748 605.863 88.8872C606.162 88.8088 606.465 88.5497 606.757 88.9052L606.775 88.9541C606.881 89.2832 606.653 89.6409 606.855 89.9616C606.599 90.6542 606.389 91.3537 606.528 92.107C606.528 92.1075 606.464 92.1819 606.464 92.1819L606.514 92.2669C606.384 92.5506 606.133 92.8203 606.41 93.1515L606.412 93.1586C606.327 93.3907 606.157 93.6172 606.364 93.8692L606.288 93.941L606.318 94.0414C605.985 94.3163 606.225 94.8247 605.89 95.0991C605.932 95.1806 605.911 95.2397 605.827 95.2753C605.891 95.3326 605.955 95.3908 606.017 95.4502C606.017 95.4498 606.018 95.463 606.018 95.463C605.923 95.6855 605.86 95.9093 605.991 96.1405C605.91 96.2018 605.894 96.2767 605.942 96.3657C605.788 96.7053 605.633 97.0449 605.479 97.3846L605.436 97.3912C605.409 96.93 605.436 96.4793 605.543 96.0432C605.436 96.4793 605.409 96.93 605.436 97.3912L605.479 97.3846C605.53 97.4401 605.585 97.4908 605.645 97.5366C605.545 97.8472 605.302 98.1419 605.546 98.4903C605.458 98.7185 605.369 98.9472 605.281 99.1754C605.147 99.5163 605.013 99.8569 604.88 100.198C605.15 100.397 604.907 100.745 605.101 100.965V100.97C604.964 101.208 604.87 101.449 605.039 101.712C604.952 101.722 604.865 101.737 604.779 101.758C604.809 101.851 604.78 101.919 604.693 101.961C604.737 102.041 604.785 102.118 604.837 102.192C604.722 102.346 604.67 102.508 604.762 102.692C604.733 102.762 604.691 102.823 604.634 102.873L604.534 102.898C604.404 102.655 604.453 102.442 604.549 102.238C604.453 102.442 604.404 102.655 604.534 102.898L604.634 102.873C604.703 102.911 604.758 102.963 604.8 103.03C604.784 103.12 604.768 103.21 604.753 103.3C604.659 103.446 604.657 103.588 604.77 103.726C604.691 103.779 604.682 103.841 604.744 103.913C604.603 104.141 604.502 104.372 604.675 104.63C604.52 104.837 604.441 105.07 604.431 105.328C604.286 105.493 604.357 105.633 604.481 105.768C604.408 105.832 604.404 105.9 604.471 105.972C604.345 106.225 604.219 106.478 604.093 106.73L604.07 106.731C603.955 105.745 604.095 104.789 604.306 103.843C604.095 104.789 603.955 105.745 604.07 106.731L604.093 106.73C604.156 106.791 604.221 106.848 604.288 106.903C604.183 107.047 604.087 107.193 604.16 107.385C604.106 107.461 604.058 107.54 604.015 107.622C604.066 107.679 604.125 107.728 604.189 107.771C604.145 108.08 603.857 108.368 604.106 108.704C603.961 108.923 603.808 109.138 603.853 109.424C603.707 109.643 603.747 109.877 603.8 110.111L603.732 110.149L603.749 110.225C603.644 110.301 603.539 110.377 603.434 110.453C603.376 110.4 603.339 110.342 603.315 110.279C603.339 110.342 603.376 110.4 603.434 110.453C603.494 110.486 603.549 110.526 603.599 110.574C603.323 111.264 603.047 111.955 602.77 112.645C602.838 112.679 602.907 112.71 602.976 112.74L602.952 112.764C602.823 113.346 602.694 113.929 602.564 114.511C603.553 113.484 603.732 112.074 604.397 110.904C604.439 110.82 604.48 110.737 604.522 110.653C604.552 110.629 604.603 110.609 604.608 110.58C604.621 110.515 604.612 110.445 604.612 110.377C604.759 110.033 604.907 109.69 605.055 109.345C605.322 109.163 605.438 108.901 605.454 108.586C606.377 106.509 607.299 104.433 608.222 102.357C608.178 102.291 608.121 102.24 608.051 102.205C608.152 101.834 608.348 101.477 608.206 101.072C608.712 99.8842 608.45 98.5542 608.888 97.3533C609.593 96.6842 609.776 95.8485 609.659 94.9176C609.523 94.2771 610.003 93.9881 610.351 93.574C610.018 93.9709 609.563 94.2542 609.474 94.9709C609.457 94.9793 609.444 94.9881 609.434 94.9969C609.447 94.9885 609.46 94.9802 609.473 94.9731C609.473 94.9722 609.473 94.9718 609.474 94.9709C609.519 94.948 609.585 94.9278 609.659 94.9176C609.623 94.996 609.599 95.0824 609.549 95.152C609.538 95.1692 609.524 95.1841 609.511 95.2004C609.753 95.9436 609.552 96.722 608.888 97.3533C608.703 97.0405 608.783 96.7533 608.974 96.4771V96.4635C608.905 96.2128 608.836 95.9621 608.767 95.7119C608.811 95.541 608.854 95.3709 608.898 95.2C608.933 95.1106 608.968 95.0207 609.003 94.9313C609.473 93.4471 609.424 91.9009 609.549 90.3749C609.549 90.3744 609.619 90.3057 609.619 90.3057L609.578 90.2163C609.949 89.04 609.952 87.8189 610.014 86.6048L610.023 86.64C610.123 86.148 610.323 85.6506 610.298 85.1651C610.26 84.4281 610.58 83.9435 611.097 83.5189C611.326 83.6092 611.48 83.3827 611.685 83.3704C611.762 83.2735 611.865 83.2448 611.99 83.2722C611.922 83.3744 611.836 83.4259 611.723 83.4083C611.841 83.7783 611.959 84.1488 612.076 84.5189C611.806 84.7968 611.778 85.0938 612.01 85.4118C611.889 85.8788 611.532 86.2902 611.678 86.8193C611.597 87.0488 611.583 87.2775 611.69 87.5039C611.604 87.555 611.584 87.6255 611.629 87.7149C611.553 88.0251 611.276 88.3044 611.482 88.6585C611.411 88.7251 611.401 88.8004 611.451 88.8837C611.313 89.0982 611.189 89.3141 611.386 89.5608C611.316 89.6286 611.311 89.7022 611.368 89.781C611.243 89.9925 611.134 90.2053 611.311 90.4436C611.235 90.4991 611.216 90.57 611.252 90.6564C611.03 90.9321 610.993 91.2282 611.152 91.5471V91.5493C611 92.0722 610.6 92.5753 611.026 93.1445C610.953 93.1987 610.942 93.2634 610.991 93.3392C610.861 93.6824 610.732 94.0251 610.603 94.3683C610.663 94.4031 610.721 94.4432 610.775 94.4877L610.776 94.4885C610.638 94.7238 610.441 94.9537 610.713 95.2238L610.644 95.2912L610.686 95.3784C610.657 95.4678 610.627 95.5568 610.599 95.6463C610.286 95.9793 610.44 96.4238 610.326 96.804C610.251 97.0392 610.177 97.2736 610.103 97.5088C610.056 97.7384 610.024 97.9665 610.058 98.1881C610.024 97.9665 610.056 97.7383 610.103 97.5084C610.577 97.6071 610.775 97.4331 610.655 96.9454C610.843 96.6031 611.172 96.3176 611.086 95.8665C611.285 95.6441 611.379 95.3771 611.417 95.0859C611.461 95.0004 611.505 94.9154 611.549 94.83C612.158 93.5225 612.795 92.2273 613.359 90.9009C613.551 90.4489 613.89 89.9898 613.691 89.4326C613.691 89.4321 613.749 89.3493 613.749 89.3493L613.699 89.2603C613.775 89.0894 613.852 88.9185 613.928 88.7471C614.044 88.711 614.097 88.6321 614.087 88.5101C614.299 88.3013 614.249 87.8889 614.628 87.8096C614.612 87.722 614.639 87.6506 614.709 87.5955L614.705 87.5858C614.428 86.8933 615.116 86.5079 615.229 85.9339C615.348 85.3171 616.008 84.8523 615.746 84.1206C615.746 84.1206 615.738 84.1105 615.738 84.1105C615.969 83.8523 616.199 83.5946 616.429 83.3369C616.567 82.9827 616.704 82.629 616.842 82.2752C616.974 81.9259 617.107 81.577 617.239 81.2277C617.163 81.2069 617.102 81.1642 617.056 81.0995C617.125 81.0329 617.155 80.9514 617.148 80.8558C617.364 80.6479 617.418 80.3642 617.504 80.0946C617.804 79.9492 618.083 79.9651 618.337 80.1862C618.272 80.3523 618.207 80.5184 618.142 80.6845C618.181 80.7629 618.173 80.8347 618.114 80.8999C618.278 81.2404 618.062 81.5387 618.008 81.855C617.866 82.0061 617.761 82.1735 617.773 82.3924C617.643 82.6409 617.513 82.8893 617.383 83.1382C617.374 83.3656 617.366 83.5929 617.358 83.8202C617.272 83.8761 617.254 83.9488 617.303 84.0391C617.231 84.2118 617.158 84.3845 617.085 84.5572C617.044 84.6444 617.003 84.7321 616.962 84.8193C616.766 85.2484 616.568 85.6775 616.372 86.1065C616.395 86.2563 616.417 86.4061 616.44 86.5563L616.404 86.6303C616.172 86.6792 616.065 86.788 616.2 87.0132C615.948 87.6612 615.654 88.2973 615.66 89.0163L615.615 89.0982C615.092 89.7282 614.974 90.5295 614.707 91.2678C614.186 92.418 613.61 93.5476 613.379 94.8075C613.328 94.8335 613.307 94.8749 613.314 94.9317C613.003 95.2436 612.563 95.4991 612.824 96.0608L612.825 96.0727C612.678 96.2027 612.629 96.3701 612.641 96.5604C612.276 97.0194 612.066 97.5476 611.957 98.1199C611.793 98.441 611.628 98.7613 611.464 99.082C611.344 99.1538 611.224 99.226 611.104 99.2978C611.07 99.3855 611.035 99.4736 611.001 99.5613C610.896 100.082 610.528 100.53 610.513 101.188C611.116 101.048 611.12 100.601 611.235 100.238C611.27 100.218 611.298 100.193 611.319 100.163C611.298 100.193 611.27 100.218 611.235 100.238C611.228 100.207 611.205 100.156 611.217 100.145C611.259 100.109 611.313 100.086 611.362 100.057C611.414 99.9688 611.465 99.8802 611.517 99.7921C612.227 99.126 612.502 98.1696 613.09 97.4212C612.933 96.7617 613.607 96.3542 613.598 95.7392C614.506 94.4877 614.785 92.9396 615.531 91.6057C615.892 90.9603 616.194 90.281 616.61 89.6652C616.729 89.7127 616.848 89.7608 616.967 89.8088C616.848 89.7608 616.729 89.7127 616.61 89.6647L616.592 89.6709C616.438 89.0145 616.986 88.5603 617.077 87.9748C617.153 87.9603 617.225 87.9696 617.295 87.9999C617.274 87.9339 617.297 87.8867 617.368 87.8603C617.413 87.911 617.459 87.9621 617.505 88.0127C617.459 87.9621 617.413 87.911 617.369 87.8612C617.369 87.8607 617.369 87.8607 617.369 87.8603C617.263 87.1488 617.57 86.6317 618.129 86.2325C618.129 86.2325 618.128 86.2321 618.128 86.2317C618.257 86.0065 618.385 85.7819 618.514 85.5568C619.122 85.8867 619.085 86.3598 618.807 86.8867C618.839 87.1057 618.743 87.2713 618.591 87.4136C618.549 87.4977 618.507 87.5819 618.465 87.666C618.427 87.7528 618.388 87.8392 618.35 87.9259C618.388 88.0528 618.426 88.1801 618.463 88.307C618.207 88.514 618.224 88.9264 617.889 89.074L617.87 89.1361C617.808 90.37 617.115 91.3674 616.638 92.4449C616.269 93.3352 615.874 94.2159 615.542 95.1198C615.376 95.5714 615.168 95.9568 614.772 96.2304C615.059 96.4639 614.601 96.7996 614.882 97.0335C614.827 97.1626 614.773 97.2916 614.719 97.4207C613.932 97.9824 613.895 98.971 613.422 99.7119C613.345 99.8586 613.267 100.005 613.19 100.152C613.08 100.229 612.914 100.282 612.868 100.386C611.912 102.547 610.047 104.093 608.99 106.183C607.469 106.901 607.315 108.575 606.649 109.824C605.962 111.11 605.359 112.508 604.93 113.94C604.841 114.099 604.751 114.258 604.661 114.416C604.382 114.623 604.439 114.956 604.354 115.236C603.775 115.525 603.782 116.198 603.44 116.642C603.3 116.838 603.181 117.061 602.901 117.086C602.761 117.414 602.591 117.742 602.839 118.116C603.419 117.962 603.666 117.568 603.784 117.06C604.053 116.493 604.772 116.146 604.606 115.366C604.888 115.351 605.035 115.199 605.056 114.92C605.684 114.288 606.14 113.523 606.48 112.724C607.175 111.089 607.925 109.463 608.937 108.03C610.247 106.177 611.15 104.073 612.596 102.316C612.806 102.061 612.983 101.786 613.009 101.441C613.473 101.294 613.476 100.802 613.714 100.486C614.068 100.395 614.192 100.097 614.318 99.8014L614.401 99.774L614.403 99.6868C614.66 99.5485 614.917 99.4106 615.174 99.2723L615.18 99.2696C615.613 99.2705 616.166 99.104 615.891 99.9247C615.769 100.286 615.579 100.592 615.393 100.91L615.364 100.929C614.787 101.219 614.684 101.831 614.414 102.331C614.373 102.34 614.299 102.342 614.294 102.36C614.276 102.434 614.28 102.514 614.276 102.592C614.19 102.641 614.151 102.717 614.158 102.816C613.585 103.228 613.338 103.86 613.065 104.473C612.601 104.64 612.544 105.087 612.398 105.474C612.303 105.501 612.267 105.563 612.292 105.66C611.413 106.826 610.635 108.053 610.044 109.394C609.841 109.468 609.815 109.636 609.817 109.819C609.086 110.642 608.714 111.66 608.293 112.651C608.26 112.672 608.207 112.688 608.199 112.716C608.183 112.78 608.188 112.85 608.184 112.918C607.277 114.607 606.14 116.147 605.101 117.751C604.997 117.776 604.955 117.84 604.973 117.945C604.254 118.639 603.709 119.451 603.329 120.376C603.152 120.479 603.092 120.648 603.071 120.839C602.273 121.694 601.651 122.668 601.143 123.72C600.669 123.863 600.618 124.333 600.413 124.685L600.324 124.735L600.344 124.835C599.913 124.915 599.882 125.683 599.275 125.461C598.299 127.428 597.042 129.248 596.222 131.298L596.131 131.327L596.122 131.423C595.583 131.893 595.399 132.567 595.115 133.184C595.077 133.27 595.039 133.357 595.001 133.443C594.805 133.772 594.428 134.017 594.527 134.481C594.408 134.522 594.29 134.562 594.172 134.603C593.932 135.296 593.339 135.84 593.288 136.716C594.197 136.261 594.51 135.38 595.052 134.706C595.529 134.092 596.006 133.479 596.483 132.865L596.586 132.845L596.609 132.741C596.695 132.748 596.78 132.74 596.863 132.718C597.312 131.655 598.079 130.821 598.842 129.99C599.004 129.814 599.126 129.635 599.209 129.418C599.501 129.311 599.625 129.1 599.594 128.792C599.888 128.743 600.014 128.526 600.106 128.276C600.758 127.94 600.969 127.212 601.461 126.734L601.452 126.74C601.812 126.518 602.056 126.205 602.182 125.8L602.155 125.818C602.957 125.2 603.516 124.372 604.096 123.561C604.372 123.54 604.455 123.317 604.555 123.111L604.562 123.105C605.125 122.814 605.29 122.141 605.808 121.806C605.875 121.635 605.942 121.463 606.01 121.291C606.089 121.285 606.165 121.299 606.237 121.332L606.237 121.331C606.408 121.02 606.579 120.708 606.75 120.396C607.078 120.272 607.291 120.049 607.334 119.685C607.493 119.605 607.553 119.472 607.539 119.299C607.63 119.305 607.719 119.294 607.806 119.268C607.806 119.268 607.808 119.272 607.811 119.276L607.806 119.268C608.092 118.464 608.368 117.653 609.137 117.157L609.239 117.219L609.361 117.19C609.412 117.284 609.489 117.327 609.596 117.318C609.725 117.473 609.855 117.627 609.983 117.782C609.96 117.806 609.922 117.827 609.916 117.855C609.904 117.915 609.909 117.978 609.908 118.04C609.669 118.556 609.431 119.072 609.193 119.589C609.158 119.676 609.123 119.763 609.087 119.85C608.993 120.12 608.898 120.388 608.804 120.657C608.703 120.679 608.649 120.742 608.643 120.846C608.556 120.848 608.471 120.85 608.385 120.852C608.364 121.235 608.043 121.466 607.91 121.793C607.438 121.928 607.372 122.373 607.2 122.736C607.108 122.751 607.073 122.804 607.094 122.895C606.791 122.927 606.644 123.114 606.595 123.398C606.503 123.417 606.468 123.472 606.489 123.564C606.351 123.631 606.212 123.698 606.074 123.766C605.974 124.038 605.875 124.31 605.775 124.583C605.698 124.584 605.661 124.624 605.665 124.702C605.573 124.702 605.48 124.706 605.387 124.715C605.35 124.446 605.416 124.253 605.544 124.105C605.576 124.068 605.612 124.033 605.651 124.002C605.612 124.033 605.576 124.068 605.544 124.105C605.416 124.253 605.35 124.446 605.387 124.715C605.349 124.801 605.31 124.887 605.271 124.974L605.269 124.976C604.802 125.098 604.779 125.576 604.543 125.884C604.131 125.928 604.075 126.272 603.969 126.573C603.872 126.583 603.829 126.636 603.84 126.733C603.369 126.867 603.341 127.367 603.073 127.669C602.816 127.725 602.702 127.918 602.624 128.148V128.148C602.256 128.355 602.072 128.71 601.894 129.069L601.806 129.102L601.813 129.195C601.329 129.612 600.772 129.963 600.556 130.617C600.354 130.676 600.153 130.736 599.951 130.795C599.966 130.891 599.924 130.939 599.828 130.94C599.829 131.15 599.829 131.359 599.83 131.568L599.747 131.609L599.76 131.701C599.431 131.73 599.338 131.977 599.264 132.242L599.165 132.279L599.152 132.384C598.773 132.497 598.65 132.818 598.531 133.143C598.448 133.157 598.364 133.161 598.281 133.155C598.121 133.462 597.961 133.77 597.802 134.078C597.713 134.104 597.682 134.161 597.709 134.25C597.254 134.423 597.102 134.824 596.965 135.236C596.577 135.41 596.398 135.762 596.22 136.115C595.952 136.156 595.819 136.328 595.78 136.59C595.689 136.627 595.65 136.694 595.662 136.791C595.33 136.92 595.142 137.172 595.057 137.511C594.973 137.549 594.934 137.615 594.942 137.708C594.355 137.867 594.026 138.275 593.856 138.838C593.771 138.868 593.73 138.928 593.733 139.019C593.423 139.013 593.328 139.251 593.221 139.475L593.234 139.466C592.468 140.269 591.702 141.07 590.936 141.873L590.93 141.876C590.648 141.846 590.541 142.054 590.424 142.248C590.038 142.286 589.98 142.652 589.797 142.893L589.816 142.878C589.221 143.546 588.892 144.361 588.552 145.17C588.49 145.235 588.429 145.299 588.368 145.363C587.774 146.015 587.543 146.871 587.111 147.615C587.171 147.843 587.288 148.021 587.522 148.101C588.022 147.722 588.608 147.447 588.971 146.903L589.012 146.892C589.421 146.903 589.544 146.616 589.631 146.292L589.619 146.296C590.51 145.908 591.202 145.292 591.718 144.47C591.883 144.504 592.001 144.44 592.074 144.284C592.479 144.103 592.866 143.903 593.029 143.445C593.121 143.433 593.159 143.382 593.143 143.291C593.732 143.116 594.263 142.867 594.485 142.226L594.508 142.208C594.638 142.238 594.72 142.176 594.775 142.065C594.911 142.05 594.984 141.973 594.993 141.836C595.571 141.279 596.248 140.823 596.722 140.157L596.707 140.162C597.758 139.477 598.652 138.628 599.378 137.603C599.7 137.645 599.735 137.365 599.852 137.177L599.858 137.174C600.599 136.755 601.123 136.11 601.636 135.453L601.687 135.392L601.647 135.324C602.447 134.944 602.841 134.154 603.418 133.549C603.803 133.584 603.718 133.231 603.819 133.032L603.856 133.013C604.815 132.422 605.608 131.667 606.158 130.672C606.158 130.671 606.159 130.671 606.159 130.671C606.503 130.596 606.585 130.254 606.797 130.043L606.784 130.055C607.188 129.61 607.747 129.301 607.976 128.7C608.558 128.395 608.997 127.97 609.142 127.298C609.58 126.648 610.158 126.073 610.353 125.288C610.46 124.858 610.964 124.89 611.104 124.535C611.27 124.565 611.422 124.538 611.553 124.42L611.576 124.432C611.61 124.559 611.633 124.792 611.679 124.797C612.266 124.857 612.227 125.33 612.317 125.72L612.311 125.706C612.238 125.776 612.227 125.855 612.277 125.943C612.192 125.98 612.157 126.043 612.172 126.135C611.773 126.35 611.573 126.707 611.474 127.135C611.379 127.162 611.333 127.225 611.337 127.324C610.914 127.518 610.777 127.921 610.621 128.31C610.532 128.34 610.492 128.402 610.502 128.496C610.084 128.672 609.932 129.065 609.743 129.427C609.454 129.445 609.375 129.666 609.302 129.895L609.2 129.928L609.19 130.036C608.722 130.577 608.023 130.927 607.821 131.691C607.523 131.686 607.451 131.919 607.366 132.139C607.367 132.139 607.358 132.148 607.358 132.148C606.943 132.443 606.466 132.676 606.28 133.206L606.18 133.236L606.164 133.338C605.692 133.474 605.583 133.92 605.369 134.275C605.042 134.247 604.913 134.426 604.902 134.727C604.696 134.812 604.536 134.95 604.429 135.149C604.005 135.296 603.837 135.659 603.687 136.036C603.422 136.053 603.316 136.253 603.217 136.46C602.696 136.517 602.423 136.849 602.277 137.322C602.194 137.363 602.153 137.429 602.154 137.521C601.483 138 600.915 138.586 600.405 139.231C599.966 139.387 599.659 139.685 599.465 140.108L599.372 140.139V140.237C599.186 140.248 599.076 140.353 599.021 140.525C598.923 140.522 598.875 140.57 598.878 140.668C598.61 140.712 598.451 140.887 598.333 141.115L598.354 141.101C597.934 141.41 597.468 141.673 597.261 142.196C596.972 142.187 596.869 142.391 596.787 142.619C596.554 142.672 596.386 142.803 596.302 143.033C595.935 143.088 595.807 143.377 595.679 143.667C595.321 143.746 595.037 143.931 594.849 144.255L594.837 144.266C594.613 144.319 594.398 144.385 594.35 144.658C594.259 144.671 594.224 144.722 594.245 144.812C594.063 144.803 593.933 144.879 593.858 145.048L593.857 145.049C593.394 145.296 593.006 145.623 592.754 146.094C592.488 146.107 592.375 146.303 592.269 146.507C591.883 146.539 591.795 146.866 591.648 147.136C591.488 147.11 591.374 147.173 591.309 147.33L591.296 147.34C591.059 147.35 590.886 147.461 590.776 147.669C590.523 147.705 590.417 147.911 590.293 148.095C589.797 148.139 589.531 148.474 589.315 148.873C589.156 148.854 589.023 148.889 588.958 149.061C588.698 149.057 588.584 149.252 588.457 149.428C588.297 149.395 588.169 149.438 588.087 149.589C587.618 149.567 587.399 150.049 586.988 150.143C586.793 150.337 586.463 150.37 586.358 150.67C585.614 150.611 585.216 151.036 584.818 151.626C584.288 152.414 584.156 153.435 583.369 154.06C582.916 154.246 582.697 154.652 582.437 155.02C582.697 154.652 582.916 154.246 583.37 154.06C583.176 154.486 582.982 154.913 582.788 155.339C582.743 155.419 582.697 155.498 582.651 155.577C582.583 155.565 582.517 155.547 582.453 155.522C582.409 155.804 582.365 156.087 582.321 156.37C582.077 156.442 581.978 156.636 581.856 156.846C581.064 158.21 580.251 159.561 579.444 160.916C579.582 160.998 579.721 161.079 579.859 161.16C579.825 161.252 579.79 161.345 579.756 161.436C580.615 161.498 581.362 161.237 582.092 160.876C582.274 160.786 582.456 160.69 582.637 160.591C582.456 160.69 582.274 160.786 582.092 160.876C581.362 161.237 580.615 161.498 579.756 161.436C579.79 161.345 579.825 161.252 579.859 161.16C580.119 161.026 580.371 160.883 580.495 160.596C580.714 160.691 580.931 160.774 581.135 160.561L581.135 160.561C581.431 160.622 581.533 160.406 581.647 160.208C582.034 160.36 582.296 160.074 582.597 159.923C582.597 159.922 582.612 159.922 582.612 159.922C582.912 160.032 583.015 159.809 583.137 159.619C583.295 159.666 583.422 159.628 583.509 159.482C583.709 159.567 583.803 159.452 583.871 159.286C584.41 159.272 584.781 158.968 585.095 158.566C585.46 158.52 585.752 158.349 585.965 158.048C586.265 158.078 586.35 157.849 586.452 157.64C586.607 157.668 586.758 157.685 586.828 157.494C587.12 157.489 587.202 157.266 587.285 157.043C587.284 157.043 587.297 157.032 587.297 157.032C587.788 156.965 588.206 156.773 588.488 156.342C588.662 156.276 588.737 156.14 588.75 155.962C588.941 155.966 589.08 155.894 589.139 155.702C589.565 155.554 589.92 155.323 590.101 154.884L590.204 154.852L590.218 154.745C590.407 154.749 590.531 154.661 590.594 154.483L590.606 154.474C590.857 154.457 590.989 154.292 591.087 154.084L591.096 154.078C591.633 154.094 591.889 153.741 592.093 153.319C592.395 153.382 592.504 153.176 592.601 152.953C592.944 153.032 593.017 152.789 593.084 152.54C593.245 152.552 593.348 152.468 593.413 152.324L593.425 152.316C593.709 152.348 593.839 152.178 593.918 151.938C594.167 151.948 594.346 151.848 594.442 151.617C594.6 151.651 594.729 151.611 594.816 151.462C595.13 151.485 595.181 151.221 595.288 151.018C595.557 151.044 595.689 150.867 595.801 150.661C596.094 150.678 596.196 150.474 596.28 150.25C596.441 150.255 596.525 150.161 596.564 150.01C596.669 150.006 596.723 149.951 596.726 149.846C597.215 149.936 597.384 149.548 597.612 149.248C598.187 149.116 598.683 148.87 598.966 148.313C599.319 148.243 599.473 147.979 599.584 147.674C599.747 147.688 599.847 147.603 599.908 147.455L599.926 147.441C600.174 147.425 600.36 147.328 600.417 147.063L600.507 147.039L600.513 146.946C600.607 146.973 600.697 146.964 600.784 146.92C600.797 146.826 600.813 146.733 600.835 146.64C600.896 146.559 600.957 146.476 601.019 146.394C601.147 146.4 601.254 146.364 601.308 146.234C601.392 146.226 601.455 146.184 601.494 146.108C601.661 146.089 601.769 145.995 601.827 145.84C601.908 145.806 601.962 145.748 601.988 145.664C602.154 145.661 602.275 145.585 602.356 145.441L602.37 145.432L602.501 145.459L602.618 145.524C602.554 145.718 602.491 145.911 602.427 146.104C602.491 145.911 602.554 145.718 602.618 145.524C602.789 145.285 603.146 145.237 603.238 144.917C603.554 144.825 603.7 144.556 603.868 144.31C604.037 144.334 604.142 144.257 604.192 144.092L604.288 144.075L604.309 143.978C604.503 143.981 604.631 143.884 604.707 143.711C605.05 143.662 605.188 143.39 605.339 143.134C605.549 143.204 605.751 143.199 605.933 143.048C605.979 143.13 606.046 143.154 606.133 143.118C606.207 143.235 606.282 143.351 606.357 143.466C606.357 143.466 606.359 143.499 606.359 143.499C606.028 144.001 606.131 144.625 605.897 145.155C605.073 145.141 604.989 146.044 604.426 146.353C604.426 146.353 604.426 146.353 604.426 146.353C604.016 146.372 603.921 146.697 603.804 147C602.846 147.368 601.946 147.814 601.442 148.789L601.37 148.845L601.396 148.933C601.108 148.926 600.963 149.112 600.842 149.333C600.357 149.242 600.171 149.576 600.003 149.936C599.637 150 599.269 150.061 599.138 150.491C598.77 150.548 598.673 150.859 598.539 151.135C597.828 150.861 597.658 151.511 597.319 151.872C596.574 152.141 596.044 152.706 595.48 153.223C595.326 153.202 595.208 153.262 595.117 153.384L595.106 153.386C594.533 153.685 593.911 153.921 593.631 154.583C593.015 154.808 592.597 155.29 592.151 155.736C591.979 155.707 591.874 155.793 591.805 155.946L591.8 155.949C591.654 155.935 591.509 155.925 591.416 156.073V156.071C591.072 155.965 591.066 156.586 590.69 156.41C590.167 156.858 589.693 157.35 589.358 157.96C589.112 158.063 588.866 158.164 588.62 158.267C588.487 158.497 588.355 158.726 588.221 158.957C588.06 158.933 587.921 158.989 587.796 159.096C587.705 159.155 587.614 159.214 587.523 159.273C587.268 159.307 587.146 159.503 587.013 159.688C586.859 159.657 586.726 159.687 586.634 159.83C586.384 159.869 586.306 160.102 586.163 160.261C586.005 160.225 585.877 160.262 585.791 160.408C585.579 160.392 585.368 160.581 585.154 160.415C585.582 159.929 586.077 159.552 586.607 159.233C586.077 159.552 585.582 159.929 585.154 160.415C584.818 160.661 584.482 160.907 584.146 161.153C583.976 161.108 583.863 161.179 583.783 161.319C583.629 161.284 583.494 161.305 583.401 161.452C583.227 161.408 583.13 161.508 583.048 161.64C582.882 161.607 582.716 161.574 582.55 161.54C582.778 161.296 583.091 161.138 583.393 160.952C583.091 161.138 582.778 161.296 582.55 161.54C582.534 161.642 582.475 161.69 582.372 161.684C582.22 161.92 582.01 161.808 581.814 161.782C581.725 161.93 581.598 162.006 581.419 161.983C581.329 162.086 581.238 162.188 581.147 162.291C580.99 162.26 580.874 162.319 580.789 162.451C580.356 162.437 579.93 162.443 579.663 162.874C579.042 162.65 578.622 163.25 578.06 163.27C577.637 163.855 577.049 164.325 576.826 165.05C576.78 165.053 576.721 165.053 576.718 165.067C576.449 166.2 575.715 167.102 575.218 168.122L575.133 168.158L575.141 168.251C574.838 168.145 574.568 168.247 574.455 168.514C574.305 168.869 574.004 169.068 573.774 169.338C573.799 169.464 573.825 169.589 573.851 169.714C573.817 169.781 573.8 169.852 573.8 169.927C573.579 170.006 573.472 170.185 573.396 170.391C573.328 170.482 573.259 170.573 573.191 170.663C572.853 170.742 572.744 171.031 572.611 171.298C572.529 171.455 572.447 171.612 572.365 171.768C572.21 171.769 572.069 171.801 571.974 171.937C571.719 171.969 571.669 172.185 571.591 172.375C571.312 172.545 571.247 172.843 571.15 173.122C570.77 173.19 570.714 173.529 570.584 173.806C570.509 173.829 570.462 173.879 570.443 173.957C570.349 173.952 570.254 173.946 570.16 173.941C570.131 174.031 570.102 174.12 570.073 174.209L569.969 174.246L569.949 174.354C569.356 174.677 569.007 175.216 568.691 175.784L568.608 175.841L568.625 175.939C568.179 176.001 568.083 176.346 568.007 176.707L567.91 176.736L567.91 176.836C567.595 176.825 567.42 176.992 567.343 177.282C566.891 177.422 566.579 177.67 566.629 178.2C566.071 178.067 566.184 178.586 566.039 178.853C565.545 178.69 565.557 179.012 565.589 179.352C565.285 179.463 565.147 179.739 564.971 179.977C564.261 180.124 563.775 179.525 563.141 179.419C563.032 178.879 562.863 178.348 563.195 177.809C563.381 177.507 563.568 177.198 563.273 176.799C562.944 176.357 563.559 176.087 563.573 175.687C563.939 175.485 564.124 175.14 564.285 174.775C564.526 174.71 564.623 174.504 564.731 174.309L564.744 174.301C565.153 174.153 565.398 173.862 565.496 173.442C565.995 173.364 566.159 172.909 566.438 172.583L566.539 172.547L566.541 172.439C566.899 172.307 566.948 171.923 567.162 171.674L567.164 171.673C567.555 171.619 567.647 171.301 567.755 170.997C567.857 170.985 567.896 170.929 567.87 170.829C568.293 170.649 568.476 170.275 568.637 169.883C568.917 169.857 569.029 169.665 569.082 169.414C569.173 169.398 569.211 169.345 569.199 169.254C569.38 169.261 569.519 169.208 569.556 169.006C569.602 168.923 569.648 168.839 569.694 168.755C569.789 168.716 569.835 168.645 569.835 168.544C570.078 168.487 570.225 168.331 570.285 168.088C570.433 168.014 570.512 167.9 570.5 167.73C570.783 167.645 570.901 167.416 570.989 167.162C571.087 167.158 571.132 167.106 571.125 167.008C571.419 166.973 571.514 166.738 571.621 166.513L571.623 166.511C571.966 166.423 572.309 166.333 572.459 165.953C572.564 165.932 572.609 165.869 572.594 165.763C572.907 165.625 573.147 165.421 573.217 165.067C573.5 164.882 573.782 164.697 574.064 164.512L574.074 164.511C574.225 164.559 574.375 164.607 574.526 164.655C574.653 164.536 574.781 164.416 574.908 164.297C575.183 164.33 575.264 164.159 575.292 163.931C575.495 163.949 575.631 163.869 575.676 163.66C575.725 163.584 575.775 163.509 575.825 163.434C576.093 163.326 576.075 163.11 576.031 162.884C576.123 162.848 576.157 162.781 576.132 162.684C576.249 162.615 576.365 162.545 576.482 162.475C576.433 162.403 576.388 162.329 576.345 162.253C576.345 162.252 576.418 162.207 576.418 162.207L576.399 162.123C576.83 161.338 576.788 160.513 576.607 159.678C576.747 159.383 576.901 159.089 576.667 158.772C576.744 158.556 576.79 158.339 576.648 158.128C576.696 156.905 577.139 155.689 576.719 154.456C577.105 153.532 576.856 152.537 577.021 151.584C577.09 151.185 577.093 150.767 577.197 150.367C576.911 148.959 577.492 147.614 577.507 146.225C577.511 145.86 577.488 145.509 577.445 145.153C577.521 145.097 577.656 145.046 577.66 144.986C577.836 142.226 578.373 139.519 578.807 136.796C578.813 136.762 578.773 136.72 578.75 136.68C578.93 135.802 579.591 135.021 579.285 134.043C579.285 134.043 579.358 134.006 579.358 134.006L579.356 133.925C579.824 132.645 580.147 130.883 580.046 130.161C580.234 129.883 580.208 129.581 580.145 129.275C580.171 129.25 580.215 129.228 580.221 129.199C580.233 129.135 580.226 129.067 580.227 129.001C580.582 128.358 580.709 127.678 580.561 126.953C580.591 126.871 580.622 126.788 580.652 126.706C580.743 126.682 580.777 126.624 580.756 126.532Z" fill="#B4B4B4"/>
</svg>
