<svg width="499" height="252" viewBox="0 0 499 252" fill="none" xmlns="http://www.w3.org/2000/svg">
<path d="M497.205 101.788L494.455 173.623H488.406L485.657 257.979H189.799L130 245V163.632L124 163V76.9998H397L497.205 101.788Z" fill="transparent"/>
<path d="M189.799 257.979L186.499 173.623M189.799 257.979H485.657L488.406 173.623M189.799 257.979L130 245V163.632M186.499 173.623L181 169.01M186.499 173.623H488.406M181 169.01L186.499 95.198M181 169.01L130 163.632M186.499 95.198L497.205 101.788M186.499 95.198L124 76.9998M497.205 101.788L494.455 173.623H488.406M497.205 101.788L397 76.9998H124M124 76.9998V163L130 163.632" stroke="#3E3E3E" stroke-width="3"/>
<path d="M304 98L260 77H295L341 98V258H304V98Z" stroke="#3E3E3E" stroke-width="3"/>
<path d="M366.327 68.3844C324.093 54.1493 312.068 74.3157 311.335 86.1783C311.335 86.1783 315.694 86.0674 318.484 86.1783C385.026 68.3844 407.938 145.272 421.319 194.26V171.853L436.717 180.42C430.851 149.006 408.561 82.6195 366.327 68.3844Z" fill="transparent" stroke="#3E3E3E" stroke-width="3"/>
<path d="M242.042 81.565C214.766 57.8398 184.85 83.5421 173.302 99.3589L170.552 90.7916L161.204 99.3589C160.471 94.3064 161.314 82.6196 170.552 76.2929C182.101 68.3845 199.149 59.817 217.296 61.1351C233.679 62.325 252.302 89.5478 267.097 94.8097C268.659 95.1776 270.208 95.4672 271.738 95.6857C278.887 90.9788 294.175 81.565 298.135 81.565C302.094 81.565 307.85 85.0799 310.233 86.8373C303.003 92.0074 288.417 98.0663 271.738 95.6857C270.241 95.6886 268.691 95.3766 267.097 94.8097C258.922 92.8843 250.376 88.814 242.042 81.565Z" fill="transparent"/>
<path d="M271.738 95.6857C288.417 98.0663 303.003 92.0074 310.233 86.8373C307.85 85.0799 302.094 81.565 298.135 81.565C294.175 81.565 278.887 90.9788 271.738 95.6857ZM271.738 95.6857C262.196 94.3236 251.969 90.1991 242.042 81.565C214.766 57.8398 184.85 83.5421 173.302 99.3589L170.552 90.7916L161.204 99.3589C160.471 94.3064 161.314 82.6196 170.552 76.2929C182.101 68.3845 199.149 59.817 217.296 61.1351C235.443 62.4532 256.341 95.7157 271.738 95.6857Z" stroke="#3E3E3E" stroke-width="3"/>
<path d="M304.094 72.5831H309.593H315.642C320.775 42.4872 339.399 -12.8276 372.834 6.67975C406.27 26.1871 350.837 63.7959 318.942 80.1619L322.242 87.7408H299.695C267.066 76.5372 211.487 45.6945 250.202 11.952C288.916 -21.7905 302.261 38.3133 304.094 72.5831Z" fill="transparent"/>
<path d="M299.695 87.7408H322.242L318.942 80.1619M299.695 87.7408C267.066 76.5372 211.487 45.6945 250.202 11.952C288.916 -21.7905 302.261 38.3133 304.094 72.5831M299.695 87.7408C283.197 76.5373 253.061 49.9125 264.499 33.0412C275.938 16.1698 294.196 57.4253 301.894 80.1619M299.695 87.7408L301.894 80.1619M304.094 72.5831H309.593M304.094 72.5831L301.894 80.1619M309.593 72.5831V81.1505M309.593 72.5831H315.642M315.642 72.5831C320.775 42.4872 339.399 -12.8276 372.834 6.67975C406.27 26.1871 350.837 63.7959 318.942 80.1619M315.642 72.5831L317.292 76.3725M318.942 80.1619C337.823 65.773 373.054 33.9636 362.936 21.8375C352.817 9.71129 328.291 53.1416 317.292 76.3725M318.942 80.1619L317.292 76.3725" stroke="#3E3E3E" stroke-width="3"/>
<path d="M223.59 239.249L221.958 281.901H218.366L216.734 331.988H41.068L5.5625 324.281V275.969L2 275.594V224.531H164.094L223.59 239.249Z" fill="transparent"/>
<path d="M41.068 331.988L39.1089 281.901M41.068 331.988H216.734L218.366 281.901M41.068 331.988L5.5625 324.281V275.969M39.1089 281.901L35.8438 279.162M39.1089 281.901H218.366M35.8438 279.162L39.1089 235.336M35.8438 279.162L5.5625 275.969M39.1089 235.336L223.59 239.249M39.1089 235.336L2 224.531M223.59 239.249L221.958 281.901H218.366M223.59 239.249L164.094 224.531H2M2 224.531V275.594L5.5625 275.969" stroke="#3E3E3E" stroke-width="3"/>
<path d="M108.875 237L82.75 224.531H103.531L130.844 237V332H108.875V237Z" stroke="#3E3E3E" stroke-width="3"/>
<path d="M72.0876 227.242C55.8924 213.155 38.1299 228.416 31.2731 237.807L29.6405 232.72L24.0897 237.807C23.6544 234.807 24.155 227.868 29.6405 224.111C36.4973 219.416 46.6195 214.329 57.3945 215.111C67.1216 215.818 78.1792 231.982 86.964 235.106C87.8914 235.324 88.8107 235.496 89.7196 235.626C93.9643 232.831 103.041 227.242 105.392 227.242C107.743 227.242 111.161 229.329 112.576 230.372C108.283 233.442 99.6227 237.039 89.7196 235.626C88.8305 235.628 87.9104 235.442 86.964 235.106C82.1102 233.963 77.0359 231.546 72.0876 227.242Z" fill="transparent"/>
<path d="M89.7196 235.626C99.6227 237.039 108.283 233.442 112.576 230.372C111.161 229.329 107.743 227.242 105.392 227.242C103.041 227.242 93.9643 232.831 89.7196 235.626ZM89.7196 235.626C84.0538 234.817 77.9813 232.368 72.0876 227.242C55.8924 213.155 38.1299 228.416 31.2731 237.807L29.6405 232.72L24.0897 237.807C23.6544 234.807 24.155 227.868 29.6405 224.111C36.4973 219.416 46.6195 214.329 57.3945 215.111C68.1696 215.894 80.5772 235.644 89.7196 235.626Z" stroke="#3E3E3E" stroke-width="3"/>
<path d="M157.488 227.21C173.683 213.124 191.446 228.384 198.303 237.776L199.935 232.689L205.486 237.776C205.921 234.776 205.421 227.837 199.935 224.08C193.078 219.385 182.956 214.298 172.181 215.08C162.454 215.787 151.397 231.95 142.612 235.075C141.684 235.293 140.765 235.465 139.856 235.595C135.611 232.8 126.534 227.21 124.183 227.21C121.832 227.21 118.415 229.297 117 230.341C121.292 233.411 129.953 237.008 139.856 235.595C140.745 235.596 141.665 235.411 142.612 235.075C147.466 233.931 152.54 231.515 157.488 227.21Z" fill="transparent"/>
<path d="M139.856 235.595C129.953 237.008 121.292 233.411 117 230.341C118.415 229.297 121.832 227.21 124.183 227.21C126.534 227.21 135.611 232.8 139.856 235.595ZM139.856 235.595C145.522 234.786 151.594 232.337 157.488 227.21C173.683 213.124 191.446 228.384 198.303 237.776L199.935 232.689L205.486 237.776C205.921 234.776 205.421 227.837 199.935 224.08C193.078 219.385 182.956 214.298 172.181 215.08C161.406 215.863 148.999 235.612 139.856 235.595Z" stroke="#3E3E3E" stroke-width="3"/>
<path d="M108.931 221.909H112.196H115.788C118.835 204.039 129.893 171.196 149.745 182.779C169.598 194.361 136.685 216.691 117.747 226.409L119.706 230.909H106.319C86.9455 224.256 53.9456 205.944 76.9323 185.909C99.9191 165.874 107.843 201.561 108.931 221.909Z" fill="transparent"/>
<path d="M106.319 230.909H119.706L117.747 226.409M106.319 230.909C86.9455 224.256 53.9456 205.944 76.9323 185.909C99.9191 165.874 107.843 201.561 108.931 221.909M106.319 230.909C96.5231 224.257 78.6297 208.448 85.4215 198.431C92.2132 188.413 103.054 212.909 107.625 226.409M106.319 230.909L107.625 226.409M108.931 221.909H112.196M108.931 221.909L107.625 226.409M112.196 221.909V226.996M112.196 221.909H115.788M115.788 221.909C118.835 204.039 129.893 171.196 149.745 182.779C169.598 194.361 136.685 216.691 117.747 226.409M115.788 221.909L116.767 224.159M117.747 226.409C128.957 217.865 149.876 198.978 143.868 191.778C137.86 184.579 123.298 210.365 116.767 224.159M117.747 226.409L116.767 224.159" stroke="#3E3E3E" stroke-width="3"/>
</svg>
