<svg width="1316" height="938" viewBox="0 0 1316 938" fill="none" xmlns="http://www.w3.org/2000/svg">
<path d="M466.412 571.753C457.108 567.453 436.698 538.043 427.656 523.876C420.368 512.874 454.25 500.607 469.39 498.494C484.53 496.38 498.365 529.772 497.808 540.052C497.251 550.332 478.042 577.127 466.412 571.753Z" stroke="#3E3E3E" stroke-width="3" stroke-linecap="round" stroke-linejoin="round"/>
<path d="M448.192 229.568C458.709 216.995 482.922 193.533 495.63 200.269C511.515 208.688 524.988 245.71 525.368 257.373M848.772 258.495C858.429 267.434 877.26 286.857 875.321 293.033C872.896 300.754 831.435 328.719 815.546 313.338C799.657 297.958 836.444 263.423 848.772 258.495Z" stroke="#3E3E3E" stroke-width="3" stroke-linecap="round" stroke-linejoin="round"/>
<path d="M414.392 174.551L386.373 169.931L367.682 283.295M317.158 589.714L330.175 510.769M518.621 191.736L840.273 244.771M945.223 264.565L887.058 617.332M832.542 716.134L722.348 697.981M406.692 645.982L671.755 689.647M396.367 109.321C411.578 166.016 454.77 277.363 505.851 269.183C569.702 258.958 482.684 137.388 478.181 122.81C473.677 108.233 483.228 1.43231 484.678 -28.3048C486.127 -58.0419 464.339 -142.339 458.334 -161.776M312.474 -170.838C312.615 -118.164 312.38 -8.29066 310.316 9.81578C307.735 32.4488 302.543 56.9571 299.582 74.9157C296.621 92.8744 308.6 110.99 310.111 122.769C311.623 134.547 308.981 241.334 367.682 283.295M367.682 283.295L341.385 442.784" stroke="#3E3E3E" stroke-width="3" stroke-linecap="round" stroke-linejoin="round"/>
<path d="M517.451 -152.805C506.065 -112.006 504.443 -36.2676 503.407 -29.9838C502.112 -22.129 507.179 24.9752 507.179 38.6426C507.179 52.3377 512.686 73.8537 518.226 84.2636C522.795 92.8485 538.828 114.171 546.202 125.76C553.575 137.349 617.764 186.723 597.486 204.126M515.054 159.813C522.051 171.341 544.375 196.145 558.837 198.53" stroke="#3E3E3E" stroke-width="3" stroke-linecap="round" stroke-linejoin="round"/>
<path d="M1015.67 -62.1227C1004.78 -19.3506 981.212 71.4319 974.074 92.385C971.825 98.9861 968.212 105.875 963.845 112.598M812.772 239.833C841.836 196.216 907.143 163.185 920.951 156.241C931.279 151.047 950.885 132.551 963.845 112.598M1189.38 -33.4809C1184.05 22.1182 1172.91 137.617 1170.99 154.821C1168.6 176.326 1164.52 194.095 1162.85 204.194C1161.19 214.293 1159.19 254.306 1140.72 261.633C1122.24 268.96 1072.09 321.779 1059.03 331.152C1045.98 340.526 945.032 394.191 923.194 400.964M916.534 441.36C939.209 452.782 990.846 483.58 1015.99 515.389C1047.43 555.15 1100.72 601.973 1112.5 614.29C1124.28 626.606 1109.59 691.265 1108.16 703.477C1106.52 717.42 1092.27 939.449 1141.9 1029.47M935.775 324.661C944.48 318.412 966.366 302.503 984.272 288.858C1010.14 271.608 1058.73 232.439 1046.16 213.769C1030.44 190.43 964.416 248.7 951.363 258.074C938.311 267.448 887.044 324.661 838.49 328.215C784.48 332.168 799.102 296.401 802.287 289.105C806.078 280.419 824.751 257.945 887.045 208.281C936.88 168.549 959.01 127.937 963.845 112.598M943.546 277.532C944.286 273.044 959.965 268.714 977.516 266.997C995.067 265.28 1014.25 232.712 1024.89 231.009" stroke="#3E3E3E" stroke-width="3" stroke-linecap="round" stroke-linejoin="round"/>
<path d="M902.432 527.532C916.008 545.533 946.909 583.998 961.905 593.852M919.595 997.468C903.875 934.133 870.659 798.636 863.554 763.325C854.672 719.187 772.023 674.419 753.953 622.999C735.884 571.579 738.291 556.982 767.468 541.033C796.646 525.083 854.587 572.697 877.865 606.523C901.144 640.348 932.315 689.315 960.407 693.947C982.881 697.652 992.449 674.625 994.423 662.648M936.891 633.555C926.646 628.021 903.189 612.543 891.324 594.901" stroke="#3E3E3E" stroke-width="3" stroke-linecap="round" stroke-linejoin="round"/>
<path d="M781.275 622.308C762.945 621.137 754.804 590.934 753.025 575.979C751.633 567.646 767.814 549.48 783.023 548.515C798.231 547.55 827.955 577.916 825.155 587.872C822.356 597.828 804.187 623.77 781.275 622.308Z" stroke="#3E3E3E" stroke-width="3" stroke-linecap="round" stroke-linejoin="round"/>
<path d="M864.699 769.3C835.883 753.476 776.28 718.832 760.969 704.396" stroke="#3E3E3E" stroke-width="3" stroke-linecap="round" stroke-linejoin="round"/>
<path d="M349.733 389.071C328.834 392.539 282.049 404.033 253.71 425.175C218.286 451.601 150.378 472.672 140.698 489.514C131.017 506.357 93.075 722.516 77.8244 759.183C62.5738 795.85 2.76345 989.427 2.03377 1000.83M261 555.446C267.042 602.539 295.416 604.912 318.349 591.408C341.282 577.903 456.56 448.375 499.703 500.702C541.906 551.888 478.679 589.033 447.171 612.648C421.964 631.54 377.262 669.113 358.062 685.539C354.29 701.435 341.272 741.313 319.37 773.657C291.993 814.086 203.577 982.416 199.693 1005.98M623.045 209.117C610.507 271.2 586.167 399.092 588.732 417.031M691.468 219.623C670.469 281.848 628.364 409.737 627.937 423.496M648.367 481.027C653.878 463.882 663.334 429.332 657.061 428.298C649.22 427.005 570.809 414.076 568.569 413.707C566.329 413.337 565.116 476.52 578.558 478.736C591.999 480.953 643.484 497.508 648.367 481.027Z" stroke="#3E3E3E" stroke-width="3" stroke-linecap="round" stroke-linejoin="round"/>
<path d="M622.987 488.538C618.804 546.488 610.705 664.961 611.77 675.255M590.488 483.179C579.413 517.764 555.166 602.453 546.771 664.538M659.778 438.131C678.702 434.355 702.621 429.885 728.861 425.884C794.498 415.876 869.327 408.753 884.827 422.48C890.385 427.402 894.01 434.082 896.006 441.57M654.311 466.107C670.396 480.257 834.016 507.235 863.523 509.801C886.983 511.841 903.75 470.621 896.006 441.57M896.006 441.57C849.232 460.226 798.669 422.48 714.632 428.133" stroke="#3E3E3E" stroke-width="3" stroke-linecap="round" stroke-linejoin="round"/>
<path d="M586.157 416.407C548.147 360.618 459.087 247.122 406.927 239.443C341.727 229.844 410.424 383.648 525.547 425.663M566.708 424.15C482.973 424.547 309.925 443.919 281.777 453.746C254.89 463.133 285.284 502.31 298.131 515.177C306.74 525.81 484.403 454.955 569.281 459.737M693.095 480.106C707.957 506.357 735.842 575.601 728.485 642.566C719.289 726.272 711.486 775.557 715.501 805.112C719.663 835.741 658.207 831.367 650.695 807.095C643.182 782.823 687.045 656.463 683.97 605.283C680.894 554.103 663.826 513.852 641.741 487.177" stroke="#3E3E3E" stroke-width="3" stroke-linecap="round" stroke-linejoin="round"/>
</svg>
