<svg width="432" height="462" viewBox="0 0 432 462" fill="none" xmlns="http://www.w3.org/2000/svg">
<path d="M35.7539 426.299C22.1333 418.442 28.5571 389.607 46.2624 387.411C63.9677 385.214 77.3625 443.7 53.3574 453.435C34.8633 460.936 3.37918 450.792 7.32161 431.208C8.85005 423.616 11.403 418.281 18.2439 414.665C26.9563 410.06 38.4311 410.308 43.1043 418.994C43.1043 418.994 47.9623 426.577 44.8391 429.041C41.9293 431.336 38.965 428.151 35.7539 426.299Z" stroke="#B4B4B4" stroke-width="3"/>
<path d="M409.005 19.737C412.076 12.4616 426.845 13.8739 429.038 22.5613C431.231 31.2486 402.915 41.5527 396.574 30.1935C391.688 21.4421 394.79 5.12232 404.795 5.87207C408.673 6.16274 411.49 7.10405 413.717 10.2889C416.552 14.3451 417.141 20.0791 413.102 22.947C413.102 22.947 409.624 25.8384 408.203 24.4348C406.878 23.1271 408.282 21.4522 409.005 19.737Z" stroke="#B4B4B4" stroke-width="3"/>
</svg>
