<?xml version="1.0" encoding="UTF-8" standalone="no"?>
<svg
        xmlns="http://www.w3.org/2000/svg"
        xmlns:sodipodi="http://sodipodi.sourceforge.net/DTD/sodipodi-0.dtd"
        xmlns:inkscape="http://www.inkscape.org/namespaces/inkscape"
        width="2560"
        height="544"
        viewBox="0 0 677.33331 143.93334"
        version="1.1"
>
    <g
            style="fill:none"
            id="g4596"
            transform="matrix(0.26458333,0,0,0.26458333,-0.60920618,-142.12241)">
        <path
                id="path4585"
                d="m 2.1040871,714.12628 c 173.6860029,10.109 316.3570029,38.418 424.9110029,107.832 113.845,72.797 62.031,177.567 -38.64,57.286 -28.657,-34.239 -54.258,-85.84 -60.609,-161.748 -4.062,-48.536 10.869,-109.1347 43.879,-144.8997 36.841,-39.9174 102.507,-41.88624 136.075,3.3698 14.699,19.8167 28.165,51.9656 37.154,104.4569 25.597,149.485 20.41,128.05 62.03,20.218 21.363,-55.346 83.171,-104.9577 139.569,-75.6131 45.596,23.7241 55.278,97.3291 18.3,153.1231 -49.645,74.91 -154.169,142.429 -201.29,173.712 -34.773,23.086 -37.266,51.25202 -23.57,74.62402 41.806,71.343 150.283,47.786 212.764,38.088 863.73631,-176.30526 958.08011,-174.68618 1812.27511,12.1796"
                stroke="white"
                stroke-width="10"
        />
    </g>
</svg>
