<svg width="480" height="424" viewBox="0 0 480 424" fill="none" xmlns="http://www.w3.org/2000/svg">
<path d="M239.014 236.925C224.519 263.035 217.101 292.432 217.486 322.241C217.486 322.67 217.572 323.093 217.74 323.488C217.907 323.882 218.152 324.24 218.461 324.539C218.77 324.838 219.135 325.073 219.537 325.229C219.938 325.386 220.367 325.461 220.798 325.451C313.691 328.268 368.576 208.982 281.676 156.539C215.594 116.777 115.604 185.891 110.399 256.571C108.909 272.993 112.68 289.462 121.177 303.63C129.673 317.798 142.46 328.941 157.713 335.469C192.252 349.48 234.598 331.712 264.564 315.04C321.34 283.732 396.175 208.121 341.528 143.311C292.4 84.9987 182.79 102.14 123.253 131.023C90.3696 147.068 70.8921 175.168 53.0705 205.929C42.898 223.54 32.0158 245.065 34.2238 265.964C37.8512 299.934 81.5377 296.177 105.826 291.481C154.299 280.638 199.958 259.87 239.882 230.507C264.564 213.052 303.913 182.995 298.866 148.243C292.242 103.08 204.239 99.2442 174.352 109.733C94.3125 137.989 77.6737 268.077 166.939 295.003C243.982 318.484 343.184 233.951 350.439 159.749C353.751 126.639 343.499 55.0988 294.687 66.6831C251.631 76.8584 220.798 129.927 205.027 166.637C188.388 205.068 178.61 259.78 216.067 289.602C264.406 327.955 346.259 307.057 381.666 262.285C420.7 212.582 436.313 124.683 400.039 69.6574C392.48 58.6067 381.803 50.0161 369.347 44.9618C356.89 39.9076 343.208 38.6145 330.015 41.2446C295.87 47.2716 273.475 70.7532 259.044 100.731C224.741 169.689 227.501 267.529 260.069 336.487C282.149 383.45 343.893 414.759 394.125 392.686C437.339 373.353 454.293 318.798 458.945 276.061C463.125 236.925 458.945 180.021 423.46 154.896C377.013 121.943 321.419 174.307 291.769 205.929C264.104 233.822 240.532 265.441 221.745 299.856C215.278 312.771 208.418 330.069 215.594 344.001C229.551 371.162 280.572 347.993 298.472 339.07C331.198 322.789 370.862 293.672 377.329 255.397C385.845 203.503 315.426 182.682 278.443 173.446C233.337 162.175 161.498 155.444 139.182 208.042C111.267 273.948 182.711 413.82 266.693 381.415C318.344 361.456 344.761 276.765 342.395 227.532C340.187 182.213 295.87 187.066 265.668 203.19C240.591 216.652 208.812 242.326 205.737 272.617C201.636 313.318 272.292 306.822 294.529 304.552C298.709 304.552 298.709 297.586 294.529 298.055C273.79 300.09 222.297 307.37 213.07 280.209C206.683 261.581 228.369 240.134 240.513 229.019C272.055 200.45 339.556 173.368 335.692 240.76C332.775 291.246 297.762 394.408 229.078 377.11C181.764 365.135 150.222 308.857 141.311 264.79C136.658 241.699 138.472 215.713 153.691 196.693C172.302 173.211 205.737 170.863 233.258 172.585C275.604 175.246 387.738 196.615 368.418 261.346C356.353 301.656 307.067 330.773 269.611 343.453C256.599 347.836 234.914 354.098 223.006 343.453C207.866 330.382 227.817 299.151 234.835 287.41C258.369 249.012 287.613 214.364 321.577 184.639C342.553 166.01 372.203 145.503 402.011 151.921C451.375 162.41 455.081 237.081 451.454 275.591C446.88 324.355 421.961 388.147 364.712 392.999C272.765 400.827 244.455 296.568 242.09 225.575C240.591 180.099 247.767 131.649 270.715 91.6519C291.138 56.2729 335.85 33.2609 374.805 54.7857C408.871 73.4145 414.234 121.63 412.341 155.835C410.72 198.617 393.969 239.465 365.027 271.208C323.548 314.179 212.203 318.171 197.93 246.944C187.521 195.441 221.587 135.093 256.52 99.4008C269.847 85.6249 290.35 68.0919 311.168 72.71C337.9 78.1108 341.449 119.673 342.711 140.65C346.969 196.145 307.541 240.604 262.671 268.625C211.966 300.404 138.788 303.378 115.367 237.316C94.6279 178.534 148.487 109.576 209.443 110.594C233.731 111.063 268.664 118.421 285.934 136.737C315.032 168.045 252.578 213.678 231.523 228.315C191.227 256.258 143.046 279.427 94.1547 286.863C78.3834 289.289 57.4864 290.463 45.8945 277.861C31.7792 262.207 45.8945 233.794 53.307 219.079C70.9709 183.387 94.6279 152.391 130.902 134.545C175.161 113.999 224.717 107.468 272.844 115.838C316.373 123.665 362.504 155.444 353.672 204.833C345.786 250.231 298.472 287.41 261.252 309.327C217.802 334.922 160.789 348.463 127.59 301.499C92.1045 251.327 142.809 190.275 185.944 166.245C241.143 135.406 324.022 162.253 320.789 234.655C319.369 267.216 293.82 294.924 266.377 309.561C259.44 313.095 252.071 315.726 244.455 317.389C229.946 320.989 223.874 321.224 224.741 305.726C226.048 282.656 232.801 260.214 244.455 240.212C246.506 236.534 240.828 233.246 238.778 236.925H239.014Z" fill="#FF3351"/>
</svg>
