<svg width="56" height="56" viewBox="0 0 56 56" fill="none" xmlns="http://www.w3.org/2000/svg">
<path d="M0 28C0 12.536 12.536 0 28 0C43.464 0 56 12.536 56 28C56 43.464 43.464 56 28 56C12.536 56 0 43.464 0 28Z" fill="#3E3E3E"/>
<path d="M29.7199 24.3882L24.3866 29.7215C24.2616 29.8455 24.1624 29.993 24.0947 30.1554C24.027 30.3179 23.9922 30.4922 23.9922 30.6682C23.9922 30.8442 24.027 31.0185 24.0947 31.181C24.1624 31.3435 24.2616 31.4909 24.3866 31.6149C24.5105 31.7399 24.658 31.839 24.8205 31.9067C24.983 31.9744 25.1572 32.0093 25.3333 32.0093C25.5093 32.0093 25.6835 31.9744 25.846 31.9067C26.0085 31.839 26.156 31.7399 26.2799 31.6149L31.6133 26.2815C31.8643 26.0305 32.0054 25.69 32.0054 25.3349C32.0054 24.9798 31.8643 24.6393 31.6133 24.3882C31.3622 24.1371 31.0217 23.9961 30.6666 23.9961C30.3115 23.9961 29.971 24.1371 29.7199 24.3882Z" fill="white"/>
<path d="M28.3734 35.2007L26.6667 36.894C25.7086 37.8813 24.4206 38.4813 23.0484 38.5797C21.6762 38.678 20.3158 38.2679 19.2267 37.4274C18.6511 36.953 18.1813 36.3632 17.8478 35.696C17.5143 35.0288 17.3245 34.2991 17.2906 33.554C17.2566 32.8089 17.3794 32.0649 17.6509 31.3702C17.9224 30.6755 18.3366 30.0454 18.8667 29.5207L20.76 27.614C20.885 27.4901 20.9842 27.3426 21.0519 27.1801C21.1196 27.0177 21.1544 26.8434 21.1544 26.6674C21.1544 26.4914 21.1196 26.3171 21.0519 26.1546C20.9842 25.9921 20.885 25.8447 20.76 25.7207C20.6361 25.5957 20.4886 25.4965 20.3261 25.4288C20.1637 25.3612 19.9894 25.3263 19.8134 25.3263C19.6374 25.3263 19.4631 25.3612 19.3006 25.4288C19.1381 25.4965 18.9907 25.5957 18.8667 25.7207L17.1734 27.4274C15.7469 28.8087 14.8702 30.6607 14.7059 32.6396C14.5416 34.6185 15.1009 36.5897 16.28 38.1874C16.9799 39.0953 17.8649 39.8439 18.8763 40.3834C19.8877 40.923 21.0023 41.2412 22.1461 41.3168C23.29 41.3925 24.4368 41.2239 25.5105 40.8223C26.5841 40.4207 27.56 39.7952 28.3734 38.9874L30.2667 37.094C30.5178 36.843 30.6588 36.5024 30.6588 36.1474C30.6588 35.7923 30.5178 35.4518 30.2667 35.2007C30.0156 34.9496 29.6751 34.8086 29.32 34.8086C28.965 34.8086 28.6244 34.9496 28.3734 35.2007ZM38.2134 16.294C36.6047 15.1027 34.6173 14.5376 32.6225 14.7045C30.6277 14.8713 28.7618 15.7586 27.3734 17.2007L25.9334 18.6674C25.7688 18.787 25.6312 18.9399 25.5294 19.1161C25.4276 19.2923 25.364 19.4879 25.3426 19.6903C25.3213 19.8927 25.3426 20.0972 25.4054 20.2908C25.4681 20.4844 25.5707 20.6626 25.7067 20.814C25.8307 20.939 25.9781 21.0382 26.1406 21.1059C26.3031 21.1736 26.4774 21.2084 26.6534 21.2084C26.8294 21.2084 27.0037 21.1736 27.1661 21.1059C27.3286 21.0382 27.4761 20.939 27.6 20.814L29.3334 19.0674C30.2862 18.0758 31.5726 17.4725 32.9443 17.374C34.3159 17.2755 35.6753 17.6888 36.76 18.534C37.34 19.0084 37.8134 19.5997 38.1496 20.2693C38.4857 20.9389 38.677 21.6719 38.711 22.4203C38.745 23.1688 38.6208 23.9161 38.3467 24.6134C38.0726 25.3107 37.6546 25.9424 37.12 26.4674L35.2267 28.374C35.1017 28.498 35.0025 28.6455 34.9349 28.8079C34.8672 28.9704 34.8323 29.1447 34.8323 29.3207C34.8323 29.4967 34.8672 29.671 34.9349 29.8335C35.0025 29.9959 35.1017 30.1434 35.2267 30.2674C35.3507 30.3923 35.4981 30.4915 35.6606 30.5592C35.8231 30.6269 35.9974 30.6618 36.1734 30.6618C36.3494 30.6618 36.5237 30.6269 36.6861 30.5592C36.8486 30.4915 36.9961 30.3923 37.12 30.2674L39.0134 28.374C39.8189 27.5608 40.4425 26.5858 40.8428 25.5134C41.2431 24.4411 41.411 23.2959 41.3353 22.1538C41.2597 21.0116 40.9423 19.8986 40.404 18.8884C39.8658 17.8782 39.1191 16.9939 38.2134 16.294Z" fill="white"/>
</svg>
