<svg width="782" height="502" viewBox="0 0 782 502" fill="none" xmlns="http://www.w3.org/2000/svg">
<path d="M543.288 215.764C555.187 215.764 552.166 204.215 547.208 200.716C542.544 197.424 536.123 201.901 534.139 207.259C531.826 213.506 536.792 220.208 543.288 221.653C551.038 223.378 557.732 215.208 557.664 207.259C557.589 198.519 548.628 192.067 540.02 193.518C531.712 194.919 527.134 202.761 527.605 211.184C528.099 220.026 534.534 226.28 543.288 227.542C554.541 229.164 563.625 218.628 564.198 207.259C564.844 194.435 552.837 184.603 540.02 185.012C525.373 185.48 515.747 201.343 518.456 215.764C521.56 232.287 542.455 240.555 557.664 233.431C568.567 228.323 574 207.259 574 207.259" stroke="#3E3E3E" stroke-width="3"/>
<path d="M35.7558 41.2988C22.1353 33.4425 28.559 4.60679 46.2643 2.41063C63.9696 0.214466 77.3644 58.7 53.3593 68.4353C34.8652 75.9356 3.38113 65.7917 7.32357 46.2084C8.85201 38.6161 11.405 33.2811 18.2458 29.6654C26.9582 25.0604 38.433 25.3079 43.1063 33.9943C43.1063 33.9943 47.9643 41.5772 44.8411 44.0409C41.9313 46.3363 38.9669 43.151 35.7558 41.2988Z" stroke="#3E3E3E" stroke-width="3"/>
<path d="M759.005 481.737C762.075 474.462 776.844 475.874 779.037 484.561C781.23 493.249 752.914 503.553 746.573 492.193C741.688 483.442 744.79 467.122 754.794 467.872C758.673 468.163 761.49 469.104 763.716 472.289C766.552 476.345 767.14 482.079 763.101 484.947C763.101 484.947 759.624 487.838 758.202 486.435C756.878 485.127 758.281 483.452 759.005 481.737Z" stroke="#3E3E3E" stroke-width="3"/>
<path d="M152.337 125.038C150.644 123.055 145.704 125.038 145.704 125.038C143.639 127.456 146.17 132.576 149.322 132.356C152.376 132.143 154.338 127.381 152.337 125.038Z" stroke="#3E3E3E" stroke-width="3"/>
<path d="M145.704 102.471C139.958 105.044 149.322 118.329 149.322 118.329C149.322 118.329 158.039 105.024 152.337 102.471C149.969 101.411 145.704 102.471 145.704 102.471Z" stroke="#3E3E3E" stroke-width="3"/>
<path d="M177.061 118.329C171.742 113.938 160.779 125.038 160.779 125.038H180.679C186.709 125.038 179.347 120.216 177.061 118.329Z" stroke="#3E3E3E" stroke-width="3"/>
<path d="M167.412 150.043C168.726 143.783 155.955 138.455 155.955 138.455C155.955 138.455 153.567 159.587 160.779 157.362C164.446 156.231 166.617 153.836 167.412 150.043Z" stroke="#3E3E3E" stroke-width="3"/>
<path d="M129.422 150.043C129.803 153.33 131.002 155.409 133.643 157.362C140.108 162.145 142.086 138.455 142.086 138.455C142.086 138.455 128.644 143.344 129.422 150.043Z" stroke="#3E3E3E" stroke-width="3"/>
<path d="M118.567 125.038C122.456 120.567 133.643 125.038 133.643 125.038C133.643 125.038 123.748 144.41 118.567 138.455C115.144 134.522 115.144 128.971 118.567 125.038Z" stroke="#3E3E3E" stroke-width="3"/>
<path d="M717.281 49.0903C717.281 49.0903 727.927 46.112 728.859 40.6C730.172 32.8364 717.513 30.9548 709.969 33.3226C701.833 35.876 697.649 43.74 699 52.1226C700.655 62.3904 711.72 64.9383 722.156 65.4645C737.524 66.2394 749.795 55.6526 752.625 40.6C756.409 20.4745 713.016 6.03226 713.016 6.03226M752.625 9.67097L769.078 3M764.203 28.471H777M764.203 52.1226L777 59.4M742.266 72.7419L752.625 84.2645M717.281 79.4129L713.016 97M691.078 65.4645L671.578 72.7419M681.938 40.6H660" stroke="#3E3E3E" stroke-width="3"/>
<path d="M656.001 367C636 377 655.707 403.645 672.001 406C689.5 408.529 710.999 377 695.001 367C679.002 357 672.001 377 672.001 377C672.001 377 676.001 357 656.001 367Z" stroke="#3E3E3E" stroke-width="3"/>
<path d="M391.716 76.9397C391.716 76.9397 387.855 57.298 391.716 55.3818C395.577 53.4656 403.298 70.7118 408.607 68.3165C413.915 65.9212 411.502 28.5542 413.915 25.2008C416.328 21.8474 434.184 61.6096 438.527 61.6096C442.87 61.6096 444.801 45.3215 449.144 43.4052C453.487 41.4889 453.487 61.6096 453.487 61.6096M405.711 81.2512C414.076 75.3428 436.886 64.0049 461.209 65.9212M408.607 87C423.084 80.1334 455.032 67.4542 467 71.67" stroke="#3E3E3E" stroke-width="3"/>
</svg>
